<?xml version="1.0" standalone="no"?>
<!DOCTYPE svg PUBLIC "-//W3C//DTD SVG 1.1//EN" "http://www.w3.org/Graphics/SVG/1.1/DTD/svg11.dtd" >
<svg xmlns="http://www.w3.org/2000/svg">
<metadata>Generated by IcoMoon</metadata>
<defs>
<font id="icomoon" horiz-adv-x="1024">
<font-face units-per-em="1024" ascent="960" descent="-64" />
<missing-glyph horiz-adv-x="1024" />
<glyph unicode="&#x20;" horiz-adv-x="512" d="" />
<glyph unicode="&#xe900;" glyph-name="alert" d="M512-64c281.6 0 512 230.4 512 512s-230.4 512-512 512-512-230.4-512-512 230.4-512 512-512zM512 896c246.4 0 448-201.6 448-448s-201.6-448-448-448-448 201.6-448 448 201.6 448 448 448zM585.6 214.4c0-19.2-6.4-35.2-19.2-44.8-12.8-12.8-32-19.2-51.2-19.2-22.4 0-38.4 6.4-51.2 19.2s-19.2 28.8-19.2 44.8c0 19.2 6.4 35.2 19.2 44.8 12.8 12.8 32 19.2 51.2 19.2 22.4 0 38.4-6.4 51.2-19.2 12.8-9.6 19.2-25.6 19.2-44.8zM444.8 742.4h131.2v-419.2h-131.2v419.2z" />
<glyph unicode="&#xe901;" glyph-name="arrowDown" d="M904.533 763.733l-392.533-392.533-392.533 392.533-119.467-119.467 512-512 512 512z" />
<glyph unicode="&#xe902;" glyph-name="arrowFillDown" d="M0 704l512-512 512 512z" />
<glyph unicode="&#xe903;" glyph-name="arrowFillLeft" horiz-adv-x="512" d="M512 960l-512-512 512-512z" />
<glyph unicode="&#xe904;" glyph-name="arrowFillRight" horiz-adv-x="512" d="M0-64l512 512-512 512z" />
<glyph unicode="&#xe905;" glyph-name="arrowFillUp" d="M1024 192l-512 512-512-512z" />
<glyph unicode="&#xe906;" glyph-name="arrowLeft" d="M827.733 55.467l-392.533 392.533 392.533 392.533-119.467 119.467-512-512 512-512z" />
<glyph unicode="&#xe907;" glyph-name="arrowRight" d="M196.267 840.533l392.533-392.533-392.533-392.533 119.467-119.467 512 512-512 512z" />
<glyph unicode="&#xe908;" glyph-name="arrowUp" d="M119.467 132.267l392.533 392.533 392.533-392.533 119.467 119.467-512 512-512-512z" />
<glyph unicode="&#xe909;" glyph-name="book" d="M931.84 820.736c-51.2 14.336-106.496 22.528-163.84 22.528-88.064 0-190.464-18.432-256-69.632-65.536 51.2-167.936 69.632-256 69.632s-186.368-18.432-256-69.632v-679.936c0-10.24 10.24-22.528 22.528-22.528 4.096 0 4.096 0 10.24 0 61.44 28.672 153.6 51.2 223.232 51.2 88.064 0 190.464-18.432 256-69.632 65.536 40.96 176.128 69.632 256 69.632 73.728 0 157.696-14.336 223.232-47.104 4.096 0 4.096 0 10.24 0 10.24 0 22.528 10.24 22.528 22.528v675.84c-28.672 18.432-55.296 32.768-92.16 47.104zM931.84 192c-51.2 18.432-106.496 22.528-163.84 22.528-79.872 0-190.464-28.672-256-69.632v536.576c65.536 36.864 176.128 69.632 256 69.632 55.296 0 112.64-10.24 163.84-22.528v-536.576z" />
<glyph unicode="&#xe90a;" glyph-name="buy" d="M208.896 425.472h-14.336v-65.536c6.144 0 10.24 0 16.384 0 16.384 0 47.104 6.144 47.104 32.768 2.048 30.72-30.72 32.768-49.152 32.768v0zM251.904 515.584c0 16.384-14.336 24.576-38.912 24.576-8.192 0-14.336 0-18.432 0v-51.2h14.336c12.288 2.048 43.008 4.096 43.008 26.624v0zM989.184 806.4h-954.368c-18.432 0-34.816-16.384-34.816-36.864v-636.928c0-22.528 16.384-38.912 34.816-38.912h952.32c18.432 0 34.816 16.384 34.816 34.816v641.024c2.048 20.48-14.336 36.864-32.768 36.864v0zM311.296 325.12c-24.576-18.432-63.488-26.624-116.736-26.624-34.816 0-59.392 2.048-71.68 6.144-6.144 0-8.192 6.144-8.192 8.192v280.576c0 2.048 2.048 8.192 8.192 8.192 18.432 2.048 55.296 6.144 83.968 6.144 43.008 0 67.584-6.144 90.112-16.384 24.576-14.336 38.912-34.816 38.912-63.488 0-24.576-14.336-47.104-34.816-59.392 26.624-14.336 47.104-40.96 47.104-71.68-4.096-30.72-14.336-55.296-36.864-71.68v0zM624.64 433.664c0-90.112-47.104-139.264-129.024-139.264-57.344 0-122.88 24.576-122.88 143.36v159.744c0 6.144 2.048 8.192 8.192 8.192h65.536c6.144 0 8.192-2.048 8.192-8.192v-169.984c0-43.008 14.336-65.536 43.008-65.536 10.24 0 43.008 0 43.008 65.536v167.936c0 6.144 2.048 8.192 8.192 8.192h65.536c6.144 0 8.192-2.048 8.192-8.192l2.048-161.792zM909.312 593.408l-92.16-167.936v-116.736c0-6.144-2.048-8.192-8.192-8.192h-67.584c-6.144 0-8.192 2.048-8.192 8.192v114.688l-90.112 169.984c-2.048 2.048 0 6.144 0 8.192 2.048 2.048 6.144 6.144 8.192 6.144h73.728c2.048 0 6.144-2.048 8.192-6.144l30.72-67.584c6.144-14.336 10.24-24.576 14.336-34.816 6.144 10.24 8.192 22.528 14.336 34.816l30.72 67.584c0 2.048 6.144 6.144 8.192 6.144h69.632c2.048 0 6.144-2.048 8.192-6.144s0-6.144 0-8.192v0z" />
<glyph unicode="&#xe90b;" glyph-name="calendar" d="M373.67 395.902c0 14.372-10.779 21.558-21.558 21.558h-82.639c-14.372 0-21.558-10.779-21.558-21.558v-82.639c0-14.372 10.779-21.558 21.558-21.558h82.639c14.372 0 21.558 10.779 21.558 21.558v82.639zM574.877 395.902c0 14.372-10.779 21.558-21.558 21.558h-82.639c-14.372 0-21.558-10.779-21.558-21.558v-82.639c0-14.372 10.779-21.558 21.558-21.558h79.046c14.372 0 21.558 10.779 21.558 21.558l3.593 82.639zM776.084 395.902c0 14.372-10.779 21.558-21.558 21.558h-82.639c-14.372 0-21.558-10.779-21.558-21.558v-82.639c0-14.372 10.779-21.558 21.558-21.558h82.639c14.372 0 21.558 10.779 21.558 21.558v82.639zM373.67 194.695c0 14.372-10.779 21.558-21.558 21.558h-82.639c-14.372 0-21.558-10.779-21.558-21.558v-82.639c0-14.372 10.779-21.558 21.558-21.558h82.639c14.372 0 21.558 10.779 21.558 21.558v82.639zM574.877 194.695c0 14.372-10.779 21.558-21.558 21.558h-82.639c-14.372 0-21.558-10.779-21.558-21.558v-82.639c0-14.372 10.779-21.558 21.558-21.558h79.046c14.372 0 21.558 10.779 21.558 21.558l3.593 82.639zM776.084 194.695c0 14.372-10.779 21.558-21.558 21.558h-82.639c-14.372 0-21.558-10.779-21.558-21.558v-82.639c0-14.372 10.779-21.558 21.558-21.558h82.639c14.372 0 21.558 10.779 21.558 21.558v82.639zM201.207 686.933h61.081c17.965 0 35.93 14.372 35.93 35.93v201.207c0 17.965-14.372 35.93-35.93 35.93h-61.081c-17.965 0-35.93-14.372-35.93-35.93v-201.207c0-17.965 17.965-35.93 35.93-35.93zM754.526 686.933h64.674c17.965 0 35.93 14.372 35.93 35.93v201.207c0 17.965-14.372 35.93-35.93 35.93h-64.674c-17.965 0-35.93-14.372-35.93-35.93v-201.207c3.593-17.965 17.965-35.93 35.93-35.93zM891.060 76.126c0-21.558-17.965-39.523-39.523-39.523h-682.667c-21.558 0-39.523 17.965-39.523 39.523v373.67c0 21.558 17.965 39.523 39.523 39.523h686.26c21.558 0 39.523-17.965 39.523-39.523v-373.67h-3.593zM923.396 845.025v-122.161c0-57.488-46.709-100.604-100.604-100.604h-64.674c-57.488 0-100.604 46.709-100.604 100.604v122.161h-287.439v-125.754c0-57.488-46.709-100.604-100.604-100.604h-68.267c-57.488 0-100.604 46.709-100.604 100.604v125.754c-50.302 0-89.825-39.523-89.825-89.825v-725.782c0-50.302 39.523-93.418 93.418-93.418h815.607c50.302 0 93.418 43.116 93.418 93.418v725.782c-3.593 50.302-43.116 89.825-89.825 89.825v0z" />
<glyph unicode="&#xe90c;" glyph-name="car" horiz-adv-x="1289" d="M1135.456 897.306c-13.932 34.83-55.728 62.694-97.524 62.694h-787.156c-48.762 0-83.592-27.864-97.524-62.694l-153.252-383.129v-515.483c0-41.796 27.864-62.694 69.66-62.694h69.66c41.796 0 69.66 27.864 69.66 62.694v62.694h856.816v-62.694c0-41.796 27.864-62.694 69.66-62.694h69.66c41.796 0 69.66 27.864 69.66 62.694v515.483l-139.32 383.129zM250.776 256.435c-55.728 0-104.49 41.796-104.49 97.524s48.762 97.524 104.49 97.524c55.728 0 104.49-41.796 104.49-97.524s-48.762-97.524-104.49-97.524v0 0zM1037.932 256.435c-55.728 0-104.49 41.796-104.49 97.524s48.762 97.524 104.49 97.524 104.49-41.796 104.49-97.524-48.762-97.524-104.49-97.524v0 0zM146.286 576.871l104.49 285.605h787.156l104.49-285.605h-996.136z" />
<glyph unicode="&#xe90d;" glyph-name="caravan" d="M1003.52 714.24h-983.040c-12.288 0-20.48-8.192-20.48-20.48v-34.816c0-12.288 8.192-20.48 20.48-20.48h16.384v-370.688c0-16.384 14.336-32.768 32.768-32.768h878.592c16.384 0 32.768 14.336 32.768 32.768v370.688h20.48c12.288 0 20.48 8.192 20.48 20.48v34.816c2.048 12.288-6.144 20.48-18.432 20.48zM251.904 497.152c0-22.528-18.432-43.008-43.008-43.008h-63.488c-22.528 0-43.008 18.432-43.008 43.008v65.536c0 22.528 18.432 43.008 43.008 43.008h63.488c22.528 0 43.008-18.432 43.008-43.008v-65.536zM434.176 290.304c0-12.288-8.192-20.48-20.48-20.48h-98.304c-10.24 0-20.48 10.24-20.48 20.48v305.152c0 12.288 8.192 20.48 20.48 20.48h98.304c10.24 0 20.48-10.24 20.48-20.48v-305.152zM733.184 454.144h-149.504c-22.528 0-43.008 18.432-43.008 43.008v65.536c0 22.528 18.432 43.008 43.008 43.008h149.504v-151.552zM937.984 497.152c0-22.528-18.432-43.008-43.008-43.008h-149.504v151.552h149.504c22.528 0 43.008-18.432 43.008-43.008v-65.536zM786.432 208.384c0 14.336 12.288 28.672 28.672 28.672h43.008c14.336 0 28.672-12.288 28.672-28.672v-26.624h-96.256l-4.096 26.624zM145.408 208.384c0 14.336 12.288 28.672 28.672 28.672h43.008c14.336 0 28.672-12.288 28.672-28.672v-26.624h-100.352v26.624z" />
<glyph unicode="&#xe90e;" glyph-name="chat" d="M921.6 960h-819.2c-56.32 0-102.4-46.080-102.4-102.4v-921.6l204.8 204.8h716.8c56.32 0 102.4 46.080 102.4 102.4v614.4c0 56.32-46.080 102.4-102.4 102.4zM921.6 243.2h-716.8l-102.4-102.4v716.8h819.2v-614.4z" />
<glyph unicode="&#xe90f;" glyph-name="cross" d="M97.524-68.876l414.476 409.6 414.476-409.6 97.524 102.4-414.476 414.476 414.476 414.476-97.524 97.524-414.476-414.476-414.476 414.476-97.524-97.524 414.476-414.476-414.476-414.476z" />
<glyph unicode="&#xe910;" glyph-name="dot" d="M1024 448c0-282.77-229.23-512-512-512s-512 229.23-512 512c0 282.77 229.23 512 512 512s512-229.23 512-512z" />
<glyph unicode="&#xe911;" glyph-name="dotOutline" d="M512 908.8c256 0 460.8-204.8 460.8-460.8s-204.8-460.8-460.8-460.8-460.8 204.8-460.8 460.8 204.8 460.8 460.8 460.8zM512 960c-281.6 0-512-230.4-512-512s230.4-512 512-512 512 230.4 512 512-230.4 512-512 512v0z" />
<glyph unicode="&#xe912;" glyph-name="dragHandle" horiz-adv-x="307" d="M273.067 960h34.133v-1024h-34.133v1024zM136.533 960h34.133v-1024h-34.133v1024zM0 960h34.133v-1024h-34.133v1024z" />
<glyph unicode="&#xe913;" glyph-name="email" horiz-adv-x="1280" d="M1152 704l-512-320-512 320v128l512-320 512 320v-128zM1152 960h-1024c-70.4 0-128-57.6-128-128v-768c0-70.4 57.6-128 128-128h1024c70.4 0 128 57.6 128 128v768c0 70.4-57.6 128-128 128z" />
<glyph unicode="&#xe914;" glyph-name="filter" d="M399.36 157.184h229.376v-63.488h-229.376v63.488zM215.040 544.256h593.92v-63.488h-593.92v63.488zM299.008 351.744h428.032v-63.488h-428.032v63.488zM352.256 671.232h-69.632v-71.68h-36.864v174.080h114.688v-28.672h-77.824v-45.056h69.632v-28.672zM380.928 763.392c0 6.144 2.048 10.24 6.144 12.288s8.192 4.096 14.336 4.096c6.144 0 10.24-2.048 14.336-4.096s6.144-8.192 6.144-12.288c0-6.144-2.048-10.24-6.144-12.288s-8.192-4.096-14.336-4.096-10.24 2.048-14.336 4.096-6.144 6.144-6.144 12.288zM417.792 599.552h-34.816v129.024h34.816v-129.024zM481.28 599.552h-34.816v184.32h34.816v-184.32zM552.96 761.344v-32.768h20.48v-24.576h-20.48v-65.536c0-4.096 0-8.192 2.048-10.24s6.144-4.096 10.24-4.096c4.096 0 8.192 0 10.24 0v-26.624c-6.144-2.048-14.336-4.096-20.48-4.096-24.576 0-36.864 12.288-36.864 36.864v69.632h-18.432v24.576h18.432v36.864h34.816zM653.312 597.504c-18.432 0-34.816 6.144-47.104 18.432s-18.432 26.624-18.432 47.104v4.096c0 12.288 2.048 24.576 8.192 34.816s12.288 18.432 20.48 24.576 20.48 8.192 30.72 8.192c18.432 0 30.72-6.144 40.96-16.384s14.336-26.624 14.336-47.104v-18.432h-81.92c2.048-8.192 4.096-14.336 10.24-20.48s12.288-8.192 20.48-8.192c14.336 0 24.576 4.096 30.72 14.336l16.384-18.432c-6.144-8.192-12.288-12.288-20.48-16.384s-14.336-6.144-24.576-6.144zM649.216 704c-6.144 0-12.288-2.048-16.384-6.144s-6.144-12.288-8.192-20.48h49.152v2.048c0 8.192-2.048 14.336-6.144 18.432s-10.24 6.144-18.432 6.144zM798.72 697.856c-4.096 0-8.192 0-12.288 0-12.288 0-22.528-4.096-26.624-14.336v-83.968h-34.816v129.024h32.768v-16.384c6.144 12.288 16.384 18.432 28.672 18.432 4.096 0 8.192 0 10.24-2.048l2.048-30.72z" />
<glyph unicode="&#xe915;" glyph-name="fire" horiz-adv-x="607" d="M261.953 960c174.14-160.744 105.674-320 23.814-468.837-83.349-151.814-177.116-294.698-87.814-450.977-157.767 171.163-99.721 312.558-20.837 459.907 77.395 144.372 180.093 296.186 84.837 459.907zM421.209 663.814c-125.023-99.721-86.326-211.349-38.698-317.023 49.116-105.674 105.674-206.884 38.698-308.093 114.605 108.651 81.86 206.884 35.721 309.581s-108.651 208.372-35.721 315.535zM589.395-64h-181.581c-4.465 0-10.419 1.488-13.395 5.953-2.977 2.977-5.953 8.93-5.953 13.395 1.488 31.256-16.372 47.628-31.256 56.558-29.767 17.86-72.93 17.86-102.698 0-14.884-8.93-32.744-25.302-31.256-56.558 0-4.465-1.488-10.419-5.953-13.395-2.977-2.977-8.93-5.953-13.395-5.953h-184.558c-10.419 0-19.349 8.93-19.349 19.349s8.93 19.349 19.349 19.349h166.698c4.465 29.767 20.837 55.070 49.116 71.442 41.674 25.302 99.721 25.302 141.395 0 28.279-16.372 44.651-41.674 49.116-71.442h162.233c10.419 0 19.349-8.93 19.349-19.349s-5.953-19.349-17.86-19.349z" />
<glyph unicode="&#xe916;" glyph-name="goTo" d="M913.408 960h-800.768c-61.44 0-112.64-51.2-112.64-112.64v-229.376h112.64v229.376h798.72v-794.624h-798.72v225.28h-112.64v-229.376c0-61.44 51.2-112.64 112.64-112.64h798.72c61.44 0 112.64 51.2 112.64 112.64v798.72c4.096 61.44-47.104 112.64-110.592 112.64v0zM403.456 243.2l81.92-77.824 284.672 282.624-284.672 282.624-81.92-77.824 151.552-147.456h-555.008v-114.688h555.008z" />
<glyph unicode="&#xe917;" glyph-name="hamburger" d="M5.12 161.28h1024v-112.64h-1024v112.64zM5.12 847.36h1024v-112.64h-1024v112.64zM5.12 504.32h1024v-112.64h-1024v112.64z" />
<glyph unicode="&#xe918;" glyph-name="havenIcon" d="M802.816 136.704c-30.72-36.864-61.44-77.824-102.4-102.4-98.304-65.536-215.040-24.576-282.624 10.24-57.344 30.72-139.264 112.64-215.040 200.704-24.576 24.576-65.536 57.344-86.016 65.536-4.096 6.144-16.384 6.144-24.576 10.24-36.864-16.384-61.44-57.344-77.824-92.16-4.096-6.144-4.096-16.384-10.24-26.624v-245.76c-4.096-10.24 6.144-20.48 20.48-20.48h972.8c16.384 0 24.576 10.24 24.576 24.576v237.568c-90.112 0-165.888-32.768-219.136-61.44zM24.576 960c-14.336 0-24.576-10.24-24.576-24.576v-624.64c4.096 6.144 16.384 10.24 20.48 10.24h-4.096c40.96 20.48 122.88 36.864 188.416 20.48s139.264-98.304 174.080-139.264c86.016-86.016 143.36-139.264 249.856-139.264 65.536 0 126.976 36.864 188.416 92.16 51.2 61.44 98.304 112.64 180.224 118.784 10.24 0 16.384 0 24.576 0v661.504c2.048 14.336-8.192 24.576-22.528 24.576h-974.848zM794.624 284.16h-133.12l45.056 215.040h-108.544l-45.056-215.040h-133.12l106.496 518.144h133.12l-40.96-188.416h106.496l40.96 188.416h135.168l-106.496-518.144z" />
<glyph unicode="&#xe919;" glyph-name="home" d="M409.6 13.824v307.2h204.8v-307.2h256v409.6h153.6l-512 458.752-512-458.752h153.6v-409.6h256z" />
<glyph unicode="&#xe91a;" glyph-name="info" d="M512 960c-281.6 0-512-230.4-512-512s230.4-512 512-512 512 230.4 512 512-230.4 512-512 512zM512 0c-246.4 0-448 201.6-448 448s201.6 448 448 448 448-201.6 448-448-201.6-448-448-448zM438.4 681.6c0 19.2 6.4 35.2 19.2 44.8 12.8 12.8 32 19.2 51.2 19.2 22.4 0 38.4-6.4 51.2-19.2s19.2-28.8 19.2-44.8c0-19.2-6.4-35.2-19.2-44.8-12.8-12.8-32-19.2-51.2-19.2-22.4 0-38.4 6.4-51.2 19.2-12.8 9.6-19.2 25.6-19.2 44.8zM579.2 153.6h-131.2v419.2h131.2v-419.2z" />
<glyph unicode="&#xe91b;" glyph-name="keys" horiz-adv-x="1005" d="M907.925 802.584c50.882-103.354 6.36-228.969-96.994-278.261-23.851-11.13-42.932-15.901-68.373-19.081-7.95-1.59-9.54-3.18-7.95-17.491 1.59-9.54 3.18-22.261-3.18-34.981 0-1.59 1.59-3.18 1.59-4.77 3.18-7.95 9.54-12.72 15.901-17.491l1.59-1.59c7.95-6.36 12.72-17.491 12.72-25.441 1.59-50.882 6.36-170.137 9.54-263.95 3.18-62.012 4.77-112.894 4.77-120.845 0-39.752 22.261-82.683 49.292-82.683 3.18 0 6.36 0 9.54 1.59 12.72 4.77 34.981 28.621 47.702 52.472 6.36 12.72 1.59 17.491-4.77 23.851-4.77 6.36-12.72 14.311-12.72 28.621 0 12.72 11.13 31.801 19.081 41.342 11.13 14.311 7.95 20.671 6.36 27.031-1.59 4.77-3.18 11.13 1.59 22.261 3.18 6.36 4.77 15.901-9.54 27.031-9.54 7.95-15.901 17.491-15.901 30.211 0 9.54 3.18 17.491 9.54 23.851 22.261 22.261 15.901 30.211 12.72 33.391-1.59 1.59-1.59 1.59-3.18 3.18-9.54 9.54-14.311 15.901-1.59 31.801 9.54 12.72 9.54 23.851-1.59 33.391-12.72 12.72-12.72 25.441 0 42.932 6.36 9.54 4.77 19.081 3.18 31.801-1.59 6.36-1.59 12.72-1.59 20.671 0 12.72 9.54 15.901 20.671 19.081 7.95 1.59 15.901 4.77 19.081 11.13 11.13 20.671 1.59 33.391-6.36 46.112-7.95 11.13-15.901 22.261 0 34.981 20.671 15.901 34.981 27.031 49.292 47.702 63.602 89.043 41.342 211.478-46.112 275.081-20.671 14.311-42.932 25.441-66.783 30.211 20.671-22.261 39.752-46.112 52.472-73.143zM160.596 422.559c3.18 0 6.36-1.59 9.54-1.59 9.54 0 12.72 3.18 17.491 7.95s7.95 7.95 19.081 7.95v0c6.36 0 15.901 3.18 19.081 20.671 3.18 19.081 19.081 31.801 34.981 31.801 3.18 0 6.36 0 9.54-1.59 9.54-3.18 15.901-4.77 22.261-4.77 9.54 0 12.72 4.77 14.311 7.95 0 1.59 1.59 1.59 1.59 3.18 3.18 9.54 6.36 17.491 19.081 17.491 3.18 0 4.77 0 9.54-1.59 15.901-3.18 25.441 3.18 30.211 15.901 4.77 15.901 17.491 23.851 38.161 20.671 1.59 0 3.18 0 4.77 0 9.54 0 15.901 4.77 25.441 11.13 4.77 3.18 11.13 7.95 17.491 11.13 3.18 1.59 4.77 1.59 7.95 1.59 7.95 0 12.72-6.36 17.491-11.13 4.77-6.36 11.13-11.13 19.081-11.13 23.851 0 30.211 14.311 38.161 27.031 4.77 9.54 9.54 17.491 20.671 17.491 3.18 0 6.36-1.59 11.13-3.18 23.851-11.13 39.752-17.491 65.193-22.261 9.54-1.59 19.081-1.59 28.621-1.59 96.994 0 181.267 73.143 195.578 168.547 15.901 108.124-58.832 208.298-166.957 224.199-9.54 1.59-19.081 1.59-28.621 1.59-96.994 0-181.267-73.143-195.578-168.547-1.59-7.95-1.59-15.901-1.59-23.851 0-4.77 0-11.13-1.59-15.901 0 0 0-11.13-14.311-14.311-15.901-3.18-22.261-6.36-30.211-15.901-4.77-6.36-7.95-15.901-9.54-22.261v-1.59c-1.59-9.54-9.54-19.081-17.491-23.851-46.112-23.851-149.466-82.683-232.149-128.795-54.062-30.211-98.584-54.062-104.944-58.832-27.031-14.311-50.882-41.342-54.062-63.602-1.59-11.13 1.59-19.081 7.95-27.031 9.54-9.54 42.932-19.081 68.373-19.081v0c14.311 0 15.901 6.36 19.081 15.901 3.18 7.95 6.36 17.491 19.081 23.851 6.36 3.18 15.901 4.77 23.851 4.77 7.95 3.18 15.901 1.59 22.261 1.59zM705.988 746.932c-34.981 4.77-58.832 38.161-54.062 73.143 4.77 31.801 31.801 54.062 63.602 54.062 3.18 0 6.36 0 9.54 0 17.491-3.18 31.801-11.13 41.342-25.441s14.311-30.211 12.72-47.702c-4.77-31.801-31.801-54.062-63.602-54.062-4.77 0-7.95 0-9.54 0zM715.528 832.795c-25.441-12.72-36.571-39.752-30.211-65.193-15.901 11.13-27.031 30.211-23.851 52.472 3.18 25.441 27.031 46.112 52.472 46.112 3.18 0 4.77 0 7.95 0 14.311-1.59 27.031-9.54 34.981-20.671 1.59-3.18 3.18-4.77 4.77-7.95-14.311 3.18-30.211 1.59-46.112-4.77zM686.907 440.050c4.77-1.59 7.95-1.59 12.72-1.59s6.36 1.59 9.54 3.18c19.081 12.72 17.491 28.621 15.901 42.932-1.59 12.72-3.18 27.031 17.491 30.211 25.441 4.77 42.932 7.95 65.193 19.081 98.584 47.702 138.335 165.366 90.634 263.95-14.311 28.621-34.981 52.472-58.832 71.553 23.851-41.342 33.391-87.453 25.441-135.155-14.311-101.764-103.354-178.087-206.708-178.087-9.54 0-20.671 0-30.211 1.59-23.851 3.18-41.342 11.13-63.602 20.671 0-3.18-1.59-4.77-4.77-7.95-11.13-11.13-14.311-17.491-15.901-30.211-1.59-7.95 3.18-17.491 4.77-23.851l1.59-1.59c3.18-9.54 3.18-20.671 0-28.621-23.851-46.112-76.323-151.056-119.255-236.919-28.621-55.652-50.882-100.174-54.062-108.124-14.311-27.031-19.081-62.012-9.54-82.683 4.77-9.54 11.13-15.901 20.671-17.491 1.59 0 3.18 0 4.77 0 15.901 0 42.932 11.13 62.012 23.851 11.13 7.95 9.54 14.311 7.95 23.851-1.59 7.95-4.77 19.081 3.18 30.211 6.36 11.13 25.441 22.261 36.571 27.031 15.901 7.95 17.491 14.311 19.081 20.671s1.59 12.72 11.13 19.081c6.36 4.77 11.13 12.72 4.77 27.031-4.77 11.13-4.77 23.851 0 33.391 4.77 7.95 11.13 14.311 19.081 17.491 30.211 7.95 28.621 19.081 27.031 22.261 0 1.59 0 1.59-1.59 3.18-3.18 12.72-4.77 20.671 14.311 28.621 14.311 6.36 19.081 15.901 14.311 30.211-4.77 17.491 1.59 28.621 20.671 38.161 11.13 4.77 14.311 14.311 19.081 27.031 1.59 6.36 4.77 12.72 7.95 19.081s7.95 9.54 14.311 9.54c4.77 1.59 9.54 0 14.311-1.59z" />
<glyph unicode="&#xe91c;" glyph-name="leftQuote" horiz-adv-x="1422" d="M618.667 234.667c0-42.667-7.111-85.333-21.333-120.889s-35.556-71.111-64-92.444c-28.444-28.444-64-49.778-99.556-64s-78.222-21.333-120.889-21.333c-35.556 0-71.111 7.111-106.667 21.333s-71.111 35.556-99.556 56.889c-28.444 28.444-56.889 64-71.111 106.667-28.444 42.667-35.556 99.556-35.556 163.556s14.222 135.111 35.556 199.111c21.333 64 56.889 128 92.444 184.889s85.333 106.667 135.111 156.444c49.778 42.667 99.556 85.333 156.444 113.778 14.222 7.111 28.444 14.222 42.667 21.333 14.222 0 28.444 0 42.667 0s21.333 0 28.444-7.111 14.222-14.222 14.222-28.444c0-7.111 0-21.333-7.111-28.444-7.111-14.222-14.222-28.444-21.333-42.667-49.778-56.889-92.444-113.778-120.889-170.667-28.444-49.778-49.778-99.556-56.889-142.222 42.667-7.111 78.222-14.222 113.778-35.556 35.556-14.222 64-35.556 85.333-64 28.444-28.444 42.667-56.889 56.889-92.444s21.333-71.111 21.333-113.778zM1422.222 234.667c0-42.667-7.111-85.333-21.333-120.889s-35.556-71.111-64-92.444c-28.444-28.444-64-49.778-99.556-64s-78.222-21.333-120.889-21.333c-35.556 0-71.111 7.111-106.667 21.333s-71.111 35.556-99.556 56.889c-28.444 28.444-56.889 64-71.111 106.667-21.333 42.667-28.444 99.556-28.444 163.556s14.222 135.111 35.556 199.111c21.333 64 56.889 128 92.444 184.889s85.333 106.667 135.111 156.444c49.778 42.667 99.556 85.333 156.444 113.778 14.222 7.111 28.444 14.222 42.667 21.333 7.111 0 14.222 0 28.444 0s21.333 0 35.556-7.111 14.222-14.222 14.222-28.444c0-7.111 0-21.333-7.111-28.444s-14.222-21.333-21.333-35.556c-49.778-64-85.333-120.889-120.889-170.667-28.444-49.778-49.778-99.556-56.889-149.333 35.556-7.111 78.222-14.222 106.667-28.444 35.556-14.222 64-35.556 85.333-64s42.667-56.889 56.889-92.444c21.333-42.667 28.444-78.222 28.444-120.889z" />
<glyph unicode="&#xe91d;" glyph-name="minus" d="M0 496.762h1024v-97.524h-1024v97.524z" />
<glyph unicode="&#xe91e;" glyph-name="navClose" d="M737.28 521.728l-45.056 45.056-180.224-182.272-180.224 182.272-45.056-45.056 180.224-182.272-180.224-180.224 45.056-45.056 180.224 182.272 180.224-182.272 45.056 45.056-180.224 180.224zM352.256 677.376c-2.048-18.432-8.192-32.768-20.48-45.056s-28.672-16.384-49.152-16.384c-22.528 0-40.96 8.192-53.248 22.528s-18.432 34.816-18.432 61.44v10.24c0 16.384 2.048 30.72 8.192 45.056s14.336 22.528 24.576 28.672 22.528 12.288 36.864 12.288c20.48 0 36.864-6.144 49.152-16.384s18.432-26.624 20.48-45.056h-36.864c0 12.288-4.096 20.48-10.24 24.576s-14.336 8.192-24.576 8.192c-12.288 0-20.48-4.096-26.624-12.288s-6.144-24.576-6.144-40.96v-12.288c0-18.432 2.048-32.768 8.192-40.96s14.336-12.288 26.624-12.288c10.24 0 18.432 2.048 24.576 8.192s8.192 12.288 10.24 24.576h36.864zM409.6 617.984h-34.816v184.32h34.816v-184.32zM432.128 685.568c0 12.288 2.048 24.576 8.192 34.816s12.288 18.432 20.48 22.528 20.48 8.192 32.768 8.192c18.432 0 32.768-6.144 43.008-16.384s16.384-24.576 18.432-43.008v-8.192c0-20.48-6.144-36.864-16.384-47.104s-26.624-18.432-45.056-18.432-32.768 6.144-45.056 18.432-16.384 26.624-16.384 49.152v0zM466.944 681.472c0-12.288 2.048-22.528 6.144-28.672s12.288-10.24 20.48-10.24c8.192 0 14.336 4.096 20.48 10.24 4.096 6.144 6.144 16.384 6.144 30.72 0 12.288-2.048 20.48-6.144 28.672s-12.288 10.24-20.48 10.24c-8.192 0-14.336-4.096-20.48-10.24s-6.144-16.384-6.144-30.72zM647.168 654.848c0 4.096-2.048 8.192-6.144 10.24s-10.24 4.096-20.48 6.144c-30.72 6.144-47.104 20.48-47.104 38.912 0 12.288 4.096 20.48 14.336 28.672s22.528 12.288 36.864 12.288c16.384 0 28.672-4.096 38.912-12.288s14.336-18.432 14.336-30.72h-34.816c0 4.096-2.048 8.192-4.096 12.288s-8.192 4.096-14.336 4.096c-6.144 0-10.24-2.048-14.336-4.096s-4.096-6.144-4.096-10.24c0-4.096 2.048-6.144 6.144-10.24s10.24-4.096 18.432-6.144 16.384-4.096 22.528-6.144c18.432-6.144 26.624-18.432 26.624-34.816 0-12.288-4.096-20.48-14.336-28.672s-22.528-10.24-38.912-10.24c-10.24 0-20.48 2.048-28.672 6.144s-14.336 8.192-20.48 16.384-8.192 14.336-8.192 22.528h32.768c0-6.144 2.048-10.24 6.144-14.336s10.24-4.096 16.384-4.096c6.144 0 12.288 2.048 14.336 4.096s8.192 6.144 8.192 10.24zM763.904 615.936c-18.432 0-34.816 6.144-47.104 18.432s-18.432 26.624-18.432 47.104v4.096c0 12.288 2.048 24.576 8.192 34.816s12.288 18.432 20.48 24.576 20.48 8.192 30.72 8.192c18.432 0 30.72-6.144 40.96-16.384s14.336-26.624 14.336-47.104v-14.336h-81.92c2.048-8.192 4.096-14.336 10.24-20.48s12.288-8.192 20.48-8.192c14.336 0 24.576 4.096 30.72 14.336l16.384-18.432c-6.144-8.192-12.288-12.288-20.48-16.384s-14.336-10.24-24.576-10.24zM759.808 722.432c-6.144 0-12.288-2.048-16.384-6.144s-6.144-12.288-8.192-20.48h49.152v2.048c0 8.192-2.048 14.336-6.144 18.432s-12.288 6.144-18.432 6.144z" />
<glyph unicode="&#xe91f;" glyph-name="navMenu" d="M215.040 177.664h593.92v-63.488h-593.92v63.488zM215.040 564.736h593.92v-63.488h-593.92v63.488zM215.040 372.224h593.92v-63.488h-593.92v63.488zM262.144 794.112l45.056-126.976 45.056 126.976h47.104v-174.080h-36.864v47.104l4.096 81.92-47.104-131.072h-24.576l-47.104 131.072 4.096-81.92v-47.104h-36.864v174.080h47.104zM489.472 617.984c-18.432 0-34.816 6.144-47.104 18.432s-18.432 26.624-18.432 47.104v4.096c0 12.288 2.048 24.576 8.192 34.816s12.288 18.432 20.48 24.576 20.48 8.192 30.72 8.192c18.432 0 30.72-6.144 40.96-16.384s14.336-26.624 14.336-47.104v-18.432h-81.92c2.048-8.192 4.096-14.336 10.24-20.48s12.288-8.192 20.48-8.192c14.336 0 24.576 4.096 30.72 14.336l16.384-18.432c-6.144-8.192-12.288-12.288-20.48-16.384s-14.336-6.144-24.576-6.144zM485.376 724.48c-6.144 0-12.288-2.048-16.384-6.144s-6.144-12.288-8.192-20.48h49.152v2.048c0 8.192-2.048 14.336-6.144 18.432s-12.288 6.144-18.432 6.144zM593.92 749.056v-14.336c10.24 12.288 22.528 16.384 36.864 16.384s24.576-4.096 30.72-12.288 10.24-20.48 10.24-36.864v-83.968h-34.816v83.968c0 8.192-2.048 12.288-4.096 16.384s-8.192 4.096-16.384 4.096c-10.24 0-16.384-4.096-22.528-12.288v-92.16h-34.816v129.024h34.816zM776.192 632.32c-8.192-10.24-20.48-16.384-34.816-16.384s-24.576 4.096-32.768 12.288-10.24 20.48-10.24 34.816v86.016h34.816v-83.968c0-14.336 6.144-20.48 18.432-20.48s20.48 4.096 24.576 12.288v92.16h34.816v-129.024h-32.768l-2.048 12.288z" />
<glyph unicode="&#xe920;" glyph-name="navPark" d="M215.040 60.928h593.92v-63.488h-593.92v63.488zM215.040 448h593.92v-63.488h-593.92v63.488zM215.040 255.488h593.92v-63.488h-593.92v63.488zM325.632 808.448v-57.344h-32.768v161.792h63.488c12.288 0 22.528-2.048 30.72-6.144s16.384-10.24 20.48-18.432c4.096-8.192 8.192-16.384 8.192-28.672 0-16.384-6.144-28.672-16.384-36.864s-26.624-14.336-45.056-14.336h-28.672zM325.632 835.072h28.672c8.192 0 16.384 2.048 20.48 6.144s6.144 10.24 6.144 18.432c0 8.192-2.048 14.336-6.144 18.432s-10.24 8.192-18.432 8.192h-30.72v-51.2zM503.808 753.152c-2.048 2.048-2.048 6.144-4.096 10.24-8.192-8.192-18.432-12.288-30.72-12.288s-20.48 4.096-28.672 10.24c-6.144 6.144-10.24 14.336-10.24 24.576 0 12.288 4.096 22.528 14.336 28.672s22.528 10.24 40.96 10.24h14.336v8.192c0 6.144-2.048 10.24-4.096 12.288-2.048 4.096-8.192 4.096-14.336 4.096s-10.24-2.048-12.288-4.096c-2.048-2.048-4.096-6.144-4.096-10.24h-32.768c0 6.144 2.048 12.288 6.144 18.432s10.24 10.24 18.432 14.336c8.192 4.096 16.384 4.096 26.624 4.096 14.336 0 26.624-4.096 34.816-10.24 8.192-8.192 12.288-18.432 12.288-30.72v-51.2c0-12.288 2.048-20.48 4.096-26.624v-2.048h-30.72zM477.184 775.68c4.096 0 8.192 2.048 12.288 4.096s6.144 4.096 8.192 8.192v20.48h-12.288c-16.384 0-24.576-6.144-24.576-16.384v-2.048c0-4.096 2.048-8.192 4.096-10.24s6.144-4.096 12.288-4.096zM622.592 841.216c-4.096 0-8.192 0-12.288 0-12.288 0-20.48-4.096-24.576-12.288v-77.824h-32.768v120.832h30.72v-14.336c6.144 10.24 14.336 16.384 26.624 16.384 4.096 0 6.144 0 10.24-2.048l2.048-30.72zM679.936 800.256l-12.288-12.288v-36.864h-32.768v169.984h32.768v-94.208l8.192 8.192 30.72 34.816h38.912l-43.008-49.152 47.104-69.632h-36.864l-32.768 49.152zM325.632 673.28c0 4.096 2.048 8.192 4.096 12.288 4.096 4.096 8.192 4.096 12.288 4.096 6.144 0 10.24-2.048 12.288-4.096s4.096-6.144 4.096-12.288c0-4.096-2.048-8.192-4.096-12.288-4.096-4.096-8.192-4.096-12.288-4.096s-10.24 2.048-12.288 4.096c-2.048 4.096-4.096 8.192-4.096 12.288zM360.448 523.776h-32.768v118.784h32.768v-118.784zM415.744 642.56v-14.336c8.192 10.24 20.48 16.384 34.816 16.384 12.288 0 22.528-4.096 28.672-10.24s10.24-18.432 10.24-32.768v-77.824h-32.768v75.776c0 6.144-2.048 12.288-4.096 14.336s-8.192 4.096-14.336 4.096c-8.192 0-16.384-4.096-20.48-12.288v-83.968h-32.768v118.784h30.72zM522.24 523.776v96.256h-18.432v22.528h18.432v10.24c0 14.336 4.096 24.576 12.288 30.72 8.192 8.192 18.432 10.24 32.768 10.24 4.096 0 10.24 0 16.384-2.048v-24.576c-2.048 0-6.144 0-10.24 0-12.288 0-18.432-6.144-18.432-16.384v-10.24h24.576v-22.528h-26.624v-96.256h-30.72zM587.776 583.168c0 12.288 2.048 22.528 6.144 30.72s10.24 16.384 20.48 20.48c8.192 4.096 18.432 8.192 30.72 8.192 16.384 0 28.672-4.096 38.912-14.336s16.384-22.528 16.384-40.96v-8.192c0-18.432-4.096-32.768-14.336-43.008s-24.576-16.384-40.96-16.384-30.72 6.144-40.96 16.384c-10.24 12.288-16.384 26.624-16.384 47.104v0zM620.544 581.12c0-12.288 2.048-20.48 6.144-26.624s10.24-8.192 18.432-8.192c8.192 0 14.336 2.048 18.432 8.192s6.144 16.384 6.144 28.672c0 10.24-2.048 20.48-6.144 26.624s-10.24 8.192-18.432 8.192c-8.192 0-14.336-2.048-18.432-8.192s-6.144-14.336-6.144-28.672z" />
<glyph unicode="&#xe921;" glyph-name="parks" d="M987.136 366.080c-10.24 0-22.528 0-32.768 0-22.528 0-47.104 0-79.872-4.096l-4.096 114.688c12.288-4.096 26.624-6.144 38.912-6.144 63.488 0 112.64 51.2 112.64 114.688 0 34.816-16.384 69.632-45.056 92.16 0 6.144 0 12.288 0 16.384 0 40.96-28.672 79.872-67.584 92.16 4.096 12.288 6.144 22.528 6.144 34.816 0 55.296-45.056 100.352-100.352 100.352s-100.352-45.056-100.352-100.352v-4.096c-47.104-6.144-86.016-47.104-86.016-100.352 0-26.624 10.24-47.104 26.624-67.584-18.432-16.384-32.768-47.104-32.768-79.872 0-63.488 51.2-114.688 112.64-114.688 12.288 0 26.624 4.096 38.912 6.144v-114.688c-61.44-12.288-135.168-32.768-215.040-61.44-169.984-61.44-301.056-137.216-366.592-176.128-45.056-28.672-83.968-55.296-108.544-77.824-40.96-32.768-40.96-45.056-40.96-51.2s6.144-12.288 16.384-12.288h925.696c6.144 0 16.384 0 22.528 6.144s16.384 16.384 16.384 38.912v321.536c2.048 14.336-4.096 32.768-36.864 32.768zM509.952 343.552c6.144 4.096 10.24 10.24 10.24 16.384s-4.096 10.24-6.144 12.288c-51.2 32.768-135.168 61.44-215.040 83.968l-4.096 100.352c10.24-4.096 16.384-4.096 26.624-4.096 47.104 0 86.016 38.912 86.016 90.112 0 28.672-12.288 55.296-34.816 69.632 0 4.096 0 6.144 0 12.288 0 32.768-18.432 61.44-47.104 69.632 2.048 8.192 2.048 18.432 2.048 26.624 0 40.96-34.816 77.824-77.824 77.824s-75.776-34.816-75.776-77.824c-30.72-8.192-59.392-43.008-59.392-81.92 0-18.432 6.144-34.816 18.432-51.2-16.384-12.288-26.624-34.816-26.624-61.44 0-47.104 38.912-90.112 86.016-90.112 10.24 0 18.432 0 26.624 4.096v-71.68c-47.104 10.24-92.16 12.288-129.024 12.288-57.344 4.096-90.112-12.288-90.112-36.864v-350.208c0-12.288 10.24-18.432 16.384-18.432s12.288 4.096 12.288 6.144c4.096 4.096 6.144 6.144 12.288 10.24 28.672 22.528 69.632 51.2 114.688 79.872 65.536 34.816 194.56 108.544 354.304 172.032z" />
<glyph unicode="&#xe922;" glyph-name="person" d="M512 448c141.312 0 256 114.688 256 256s-114.688 256-256 256-256-114.688-256-256 114.688-256 256-256zM512 321.024c-172.032 0-512-83.968-512-256v-129.024h1024v126.976c0 174.080-339.968 258.048-512 258.048z" />
<glyph unicode="&#xe923;" glyph-name="phone" d="M967.111 248.889c-68.267 0-142.222 11.378-204.8 34.133-22.756 5.689-39.822 0-56.889-11.378l-125.156-125.156c-159.289 79.644-295.822 216.178-375.467 375.467l125.156 125.156c17.067 17.067 22.756 39.822 11.378 56.889-17.067 62.578-28.444 130.844-28.444 199.111 0 28.444-22.756 56.889-56.889 56.889h-199.111c-28.444 0-56.889-28.444-56.889-56.889 0-534.756 432.356-967.111 967.111-967.111 28.444 0 56.889 28.444 56.889 56.889v199.111c0 34.133-28.444 56.889-56.889 56.889z" />
<glyph unicode="&#xe924;" glyph-name="pin" horiz-adv-x="757" d="M378.435 960c-211.478 0-378.435-158.609-378.435-358.957 0-267.13 378.435-665.043 378.435-665.043s378.435 397.913 378.435 665.043c0 200.348-166.957 358.957-378.435 358.957v0 0zM378.435 473.043c-75.13 0-136.348 55.652-136.348 128s58.435 128 136.348 128 136.348-55.652 136.348-128c0-69.565-61.217-128-136.348-128v0 0z" />
<glyph unicode="&#xe925;" glyph-name="play" d="M512-64c-282.624 0-512 229.376-512 512s229.376 512 512 512c282.624 0 512-229.376 512-512s-229.376-512-512-512zM512 851.456c-223.232 0-403.456-180.224-403.456-403.456s182.272-403.456 403.456-403.456c223.232 0 403.456 182.272 403.456 403.456 0 223.232-180.224 403.456-403.456 403.456zM710.656 448l-151.552-112.64-151.552-114.688v454.656l151.552-114.688z" />
<glyph unicode="&#xe926;" glyph-name="plus" d="M1024 496.762h-463.238v463.238h-97.524v-463.238h-463.238v-97.524h463.238v-463.238h97.524v463.238h463.238z" />
<glyph unicode="&#xe927;" glyph-name="popUp" horiz-adv-x="1089" d="M969.532 50.383h-849.702v795.234h424.851v114.383h-424.851c-65.362 0-119.83-49.021-119.83-114.383v-795.234c0-59.915 54.468-114.383 119.83-114.383h849.702c65.362 0 119.83 49.021 119.83 114.383v397.617h-119.83v-397.617zM664.511 960v-114.383h217.872l-593.702-555.574 87.149-81.702 593.702 561.021v-206.979h119.83v397.617h-424.851z" />
<glyph unicode="&#xe928;" glyph-name="pounds" horiz-adv-x="1183" d="M357.289 534.331l191.466 41.028 30.771-148.728-169.242-35.9c5.129-35.9 5.129-68.381 0-99.152-5.129-23.933-13.676-49.576-30.771-76.928 22.224 10.257 42.738 17.095 59.833 20.514 22.224 5.129 51.285 6.838 87.185 5.129 49.576 0 88.895 1.71 116.247 8.548 23.933 5.129 42.738 11.967 59.833 18.805s37.609 20.514 61.543 39.319l124.795-165.823c-37.609-29.062-71.8-51.285-100.861-66.671-30.771-15.386-63.252-25.643-99.152-34.19-39.319-8.548-87.185-11.967-140.18-8.548-70.090 3.419-114.538 5.129-131.633 5.129s-34.19-3.419-52.995-6.838c-54.705-11.967-111.119-42.738-167.533-94.023l-119.666 158.985c75.219 82.057 105.99 153.856 92.314 215.399 0 3.419-3.419 11.967-6.838 27.352l-131.633-27.352-30.771 148.728 94.023 20.514c-27.352 51.285-42.738 80.347-47.866 88.895-5.129 11.967-10.257 29.062-13.676 47.866-10.257 51.285-6.838 100.861 11.967 148.728s49.576 85.476 92.314 112.828c41.028 29.062 100.861 51.285 179.499 66.671 71.8 15.386 131.633 20.514 177.79 11.967 46.157-6.838 87.185-25.643 124.795-56.414s66.671-71.8 88.895-121.376l-234.204-88.895c-22.224 41.028-42.738 68.381-61.543 78.638s-37.609 13.676-58.124 10.257c-23.933-5.129-42.738-17.095-54.705-35.9s-15.386-42.738-8.548-71.8c3.419-15.386 8.548-29.062 13.676-42.738 6.838-11.967 23.933-44.447 52.995-94.023zM965.876 681.349l100.861-13.676-10.257-78.638-88.895 11.967c-3.419-18.805-10.257-34.19-17.095-47.866-6.838-10.257-15.386-20.514-27.352-32.481 11.967 1.71 23.933 1.71 32.481 0 11.967-1.71 25.643-5.129 42.738-11.967 23.933-8.548 42.738-15.386 58.124-17.095 11.967-1.71 22.224-1.71 32.481-1.71 8.548 0 22.224 3.419 37.609 8.548l30.771-102.571c-23.933-8.548-44.447-11.967-61.543-13.676s-35.9-1.71-54.705 1.71c-20.514 3.419-44.447 10.257-70.090 20.514-34.19 13.676-54.705 23.933-63.252 25.643-8.548 3.419-17.095 5.129-27.352 6.838-29.062 3.419-61.543-1.71-99.152-17.095l-29.062 99.152c51.285 25.643 78.638 56.414 83.766 88.895 0 1.71 0 6.838 1.71 15.386l-68.381 10.257 10.257 78.638 49.576-6.838c-5.129 29.062-6.838 47.866-6.838 51.285 0 6.838 0 15.386 1.71 25.643 3.419 27.352 15.386 51.285 32.481 70.090s39.319 32.481 64.962 39.319c25.643 6.838 58.124 6.838 99.152 1.71 37.609-5.129 68.381-13.676 88.895-25.643s37.609-27.352 51.285-49.576c11.967-22.224 20.514-46.157 22.224-75.219l-129.923-1.71c-3.419 23.933-8.548 41.028-15.386 49.576s-15.386 13.676-27.352 15.386c-13.676 1.71-23.933-1.71-32.481-8.548s-15.386-18.805-17.095-34.19c-1.71-8.548-1.71-15.386-1.71-23.933-1.71-10.257 1.71-29.062 6.838-58.124z" />
<glyph unicode="&#xe929;" glyph-name="print" horiz-adv-x="1138" d="M910.222 960h-682.667v-227.556h682.667v227.556zM967.111 448c-34.133 0-56.889 22.756-56.889 56.889s22.756 56.889 56.889 56.889 56.889-22.756 56.889-56.889-22.756-56.889-56.889-56.889zM796.444 49.778h-455.111v284.444h455.111v-284.444zM967.111 675.556h-796.444c-96.711 0-170.667-73.956-170.667-170.667v-341.333h227.556v-227.556h682.667v227.556h227.556v341.333c0 96.711-73.956 170.667-170.667 170.667z" />
<glyph unicode="&#xe92a;" glyph-name="rightQuote" horiz-adv-x="1422" d="M803.556 654.222c0 42.667 7.111 85.333 21.333 120.889s35.556 71.111 64 92.444c28.444 28.444 64 49.778 99.556 64 35.556 21.333 78.222 28.444 120.889 28.444 35.556 0 71.111-7.111 106.667-21.333s71.111-35.556 99.556-56.889c28.444-28.444 56.889-64 71.111-106.667 28.444-49.778 35.556-106.667 35.556-170.667s-14.222-135.111-35.556-199.111c-21.333-64-56.889-128-92.444-184.889s-85.333-106.667-135.111-156.444c-49.778-42.667-99.556-85.333-156.444-113.778-14.222-7.111-28.444-14.222-42.667-21.333s-28.444-7.111-42.667-7.111c-14.222 0-21.333 0-28.444 7.111s-14.222 14.222-14.222 28.444c0 7.111 0 21.333 7.111 28.444s14.222 21.333 21.333 35.556c49.778 64 85.333 120.889 120.889 170.667 28.444 49.778 49.778 99.556 56.889 149.333-35.556 7.111-78.222 14.222-106.667 28.444-35.556 14.222-64 35.556-85.333 64-28.444 28.444-42.667 56.889-56.889 92.444-21.333 56.889-28.444 92.444-28.444 128zM0 654.222c0 42.667 7.111 85.333 21.333 120.889s35.556 71.111 64 92.444c28.444 28.444 64 49.778 99.556 64 42.667 21.333 78.222 28.444 120.889 28.444 35.556 0 71.111-7.111 106.667-21.333s71.111-35.556 99.556-56.889c35.556-28.444 56.889-64 78.222-106.667 21.333-49.778 28.444-106.667 28.444-170.667s-14.222-135.111-35.556-199.111c-21.333-64-56.889-128-92.444-184.889s-85.333-106.667-135.111-156.444c-49.778-42.667-99.556-85.333-156.444-113.778-14.222-7.111-28.444-14.222-42.667-21.333s-28.444-7.111-35.556-7.111c-14.222 0-21.333 0-35.556 7.111-7.111 21.333-14.222 28.444-14.222 42.667 0 7.111 0 21.333 7.111 28.444s14.222 21.333 21.333 35.556c49.778 64 85.333 120.889 120.889 170.667 28.444 49.778 49.778 99.556 56.889 149.333-42.667 7.111-78.222 14.222-106.667 28.444-35.556 21.333-64 42.667-92.444 71.111-21.333 21.333-42.667 56.889-56.889 92.444s-21.333 71.111-21.333 106.667z" />
<glyph unicode="&#xe92b;" glyph-name="roundel" horiz-adv-x="1080" d="M1075.81 534.857c0 4.571-1.524 7.619-3.048 12.19v1.524c-18.286 89.905-77.714 161.524-155.429 217.905-13.714 18.286-27.429 35.048-44.19 51.81-158.476 161.524-403.81 184.381-588.19 71.619-83.81-18.286-158.476-57.905-213.333-124.952-86.857-108.19-83.81-249.905-42.667-380.952 22.857-74.667 57.905-146.286 94.476-205.714 54.857-88.381 129.524-173.714 225.524-216.381 60.952-27.429 126.476-30.476 190.476-19.81 22.857 3.048 47.238 7.619 71.619 15.238 208.762 62.476 454.095 275.81 469.333 505.905 0 24.381-1.524 48.762-4.571 71.619zM437.333-47.238c-83.81 16.762-155.429 70.095-211.81 132.571-97.524 109.714-179.81 263.619-195.048 417.524 0 1.524 0 3.048 0 4.571 0 3.048 0 6.095 0 9.143-3.048 45.714 1.524 91.429 12.19 134.095 30.476 109.714 106.667 175.238 201.143 211.81-15.238-12.19-32-25.905-45.714-39.619-187.429-187.429-188.952-490.667-3.048-678.095s489.143-188.952 676.571-3.048c150.857 150.857 181.333 377.905 88.381 559.238 27.429-30.476 51.81-64 68.571-102.095 10.667-22.857 16.762-47.238 21.333-70.095 28.952-193.524-134.095-371.81-281.905-475.429-62.476-44.19-137.143-85.333-214.857-102.095-38.095-4.571-77.714-6.095-115.81 1.524z" />
<glyph unicode="&#xe92c;" glyph-name="roundelCaravan" horiz-adv-x="1080" d="M405.333 286.476h7.619v118.857h-6.095zM396.19 405.333h-6.095l-1.524-118.857h6.095zM396.19 432.762l13.714 3.048 13.714-4.571v-10.667l3.048 1.524v111.238l-36.571-6.095v-106.667h6.095zM422.095 286.476h7.619l1.524 120.381h-7.619zM379.429 405.333l-9.143-1.524v-115.81h7.619zM321.524 402.286h-9.143v-114.286h7.619zM301.714 402.286l-9.143-1.524v-112.762h9.143zM339.81 403.81l-7.619-1.524-1.524-114.286h9.143zM359.619 288v115.81h-9.143v-115.81h3.048zM502.857 286.476v123.429h-7.619l-1.524-123.429zM551.619 286.476h9.143v124.952h-7.619zM540.952 286.476l1.524 124.952h-9.143v-124.952zM556.19 600.381l-121.905-10.667v-167.619l121.905 4.571zM668.952 597.333l-105.143 3.048v-54.857l105.143-3.048zM464.762 286.476v121.905h-6.095l-1.524-121.905zM522.667 286.476v123.429h-9.143v-123.429zM483.048 286.476l1.524 121.905h-9.143v-121.905zM426.667 589.714l-36.571-10.667v-44.19l36.571 6.095zM281.905 400.762h-7.619l-1.524-112.762h9.143zM446.476 286.476l1.524 120.381h-6.095l-1.524-120.381zM726.857 292.571l4.571 1.524 1.524 117.333-6.095 1.524zM714.667 291.048l4.571 1.524v120.381h-4.571zM700.952 289.524h4.571l1.524 123.429-4.571 1.524zM684.19 286.476l9.143 1.524v126.476h-9.143zM263.619 400.762h-9.143v-112.762h7.619zM789.333 438.857h85.333v146.286l-85.333 9.143zM1075.81 534.857c0 4.571-1.524 7.619-3.048 12.19 0 0 0 1.524 0 1.524-18.286 89.905-77.714 161.524-155.429 217.905-13.714 18.286-27.429 35.048-44.19 51.81-158.476 161.524-403.81 184.381-588.19 71.619-83.81-18.286-158.476-57.905-213.333-124.952-86.857-108.19-83.81-249.905-42.667-380.952 22.857-74.667 57.905-146.286 94.476-205.714 54.857-88.381 129.524-173.714 225.524-216.381 60.952-27.429 126.476-30.476 190.476-19.81 22.857 3.048 47.238 7.619 71.619 15.238 208.762 62.476 454.095 275.81 469.333 505.905 0 24.381-1.524 48.762-4.571 71.619zM499.81 729.905l216.381-48.762-7.619-21.333-208.762 45.714h-1.524l-181.333-76.19c0 1.524-1.524 3.048-1.524 3.048v3.048c0 1.524 0 6.095-3.048 10.667 0 0-1.524 1.524-1.524 1.524l188.952 82.286zM768 53.333c-62.476-44.19-137.143-85.333-214.857-102.095-38.095-6.095-77.714-6.095-117.333 1.524-83.81 16.762-155.429 70.095-211.81 132.571-96 109.714-178.286 263.619-193.524 417.524 0 1.524 0 3.048 0 4.571 0 3.048 0 6.095 0 9.143-3.048 45.714 1.524 91.429 12.19 134.095 30.476 109.714 106.667 175.238 201.143 211.81-15.238-12.19-32-25.905-45.714-39.619-187.429-187.429-188.952-490.667-3.048-678.095s489.143-188.952 676.571-3.048c41.143 41.143 74.667 88.381 97.524 138.667l-150.857-18.286v-10.667l-143.238-19.81-495.238 15.238v19.81c-1.524 0-3.048 1.524-3.048 4.571s1.524 4.571 4.571 4.571h1.524v147.81l12.19 3.048 12.19-3.048v-9.143l146.286 6.095v172.19l-35.048 13.714v16.762l179.81 74.667 211.81-45.714 3.048 9.143 274.286-33.524c0 3.048-1.524 4.571-1.524 7.619l-269.714 33.524c0 0 7.619 18.286 7.619 18.286l-106.667 24.381 358.095-50.286c-6.095 13.714-10.667 27.429-18.286 41.143 27.429-30.476 51.81-64 68.571-102.095 10.667-22.857 16.762-47.238 21.333-70.095 32-195.048-131.048-373.333-278.857-476.952zM565.333 537.905v-111.238l89.905 3.048v12.19l13.714 4.571h1.524l-1.524 88.381zM752.762 297.143h4.571v114.286h-4.571zM764.952 298.667h4.571l1.524 111.238h-4.571zM739.048 294.095l6.095 1.524v115.81h-4.571zM394.667 272.762l-188.952 1.524 188.952-3.048zM422.095 272.762v-1.524l64-1.524 167.619-1.524v1.524l-207.238 3.048zM647.619 284.952h6.095l1.524 131.048-6.095-1.524zM243.81 399.238h-6.095v-111.238h6.095zM227.048 399.238h-6.095l-1.524-111.238h7.619zM609.524 412.952v-128h9.143v129.524zM580.571 412.952h-9.143v-128h7.619zM629.333 414.476v-129.524h7.619l1.524 129.524zM591.238 412.952l-1.524-128h9.143v128z" />
<glyph unicode="&#xe92d;" glyph-name="roundelFamily" horiz-adv-x="1080" d="M528.762 565.333c0-9.143 6.095-30.476 7.619-36.571s6.095-42.667 6.095-42.667v-3.048c0 0 3.048 1.524 4.571 7.619s3.048 10.667 4.571 18.286c1.524 7.619-1.524 18.286-3.048 21.333-1.524 4.571-10.667 36.571-12.19 39.619 0 3.048-3.048 22.857-4.571 27.429 0 6.095-3.048 10.667-3.048 10.667 0-1.524 0-10.667 0-12.19 0-3.048 0-22.857 0-30.476zM646.095 426.667c0-4.571 0-7.619 0-9.143s1.524 3.048 1.524 4.571c0 1.524 0 6.095 0 9.143s0 9.143 0 10.667c0 1.524 0 4.571 0 7.619-1.524 1.524-1.524 1.524-1.524 1.524v-3.048c0-1.524 0-18.286 0-21.333zM700.952 448c0 0 0 1.524 0 0 0 1.524-1.524 0-3.048-3.048 0 0 0 0 0 0 1.524 0 3.048 1.524 3.048 3.048zM408.381 371.81c0 1.524 0 1.524 0 0v0c0 1.524 0 1.524 0 0zM1075.81 534.857c0 4.571-1.524 7.619-3.048 12.19v1.524c-18.286 89.905-77.714 161.524-155.429 217.905-13.714 18.286-27.429 35.048-44.19 51.81-158.476 161.524-403.81 184.381-588.19 71.619-83.81-18.286-158.476-57.905-213.333-124.952-86.857-108.19-83.81-249.905-42.667-380.952 22.857-74.667 57.905-146.286 94.476-205.714 54.857-88.381 129.524-173.714 225.524-216.381 60.952-27.429 126.476-30.476 190.476-19.81 22.857 3.048 47.238 7.619 71.619 15.238 208.762 62.476 454.095 275.81 469.333 505.905 0 24.381-1.524 48.762-4.571 71.619zM269.714 397.714c3.048 4.571 7.619 13.714 7.619 13.714l4.571 15.238 3.048 15.238c0 0 4.571 16.762 6.095 19.81 1.524 1.524 4.571 12.19 4.571 12.19s0 3.048 0 3.048-7.619 3.048-7.619 3.048c0 0 1.524 10.667 3.048 16.762s4.571 22.857 4.571 22.857 0 6.095 6.095 9.143c6.095 3.048 19.81 9.143 19.81 9.143s1.524 1.524 1.524 3.048c0 0 0 1.524 0 1.524s-7.619 6.095-9.143 9.143c-1.524 3.048-6.095 16.762-6.095 16.762s-3.048 3.048-3.048 4.571c0 1.524 0 1.524 1.524 1.524 0 0 0 0 0 0v4.571c0 0-1.524 13.714 0 18.286 6.095 21.333 47.238 25.905 51.81-6.095 0-6.095 0-9.143 0-9.143s1.524 1.524 3.048-1.524c0 0 0-4.571-1.524-7.619s-1.524-9.143-4.571-10.667c-1.524 0-3.048 0-3.048 0v-4.571c0 0-1.524-9.143-1.524-10.667s1.524-6.095 1.524-6.095 4.571 0 6.095-3.048c1.524-3.048 3.048-3.048 3.048-3.048s15.238-9.143 15.238-10.667c1.524-1.524 4.571-1.524 6.095-6.095 0 9.143-1.524 18.286-1.524 22.857 3.048 33.524 10.667 83.81 13.714 94.476s7.619 33.524 10.667 41.143c7.619 10.667 36.571 16.762 44.19 19.81s10.667 0 12.19 9.143c1.524 7.619 1.524 15.238 0 18.286 0 0 0 0 0 0s-1.524-1.524-1.524-1.524c-1.524 4.571-4.571 19.81-4.571 24.381s1.524 25.905 9.143 35.048c13.714 15.238 51.81 10.667 51.81-22.857 0 0-1.524 1.524-1.524 1.524 0-4.571 0-6.095 0-9.143s-1.524-9.143-1.524-9.143c0-1.524 0-4.571-1.524-9.143 0-3.048-1.524-9.143-3.048-15.238-3.048-6.095-3.048-7.619-6.095-10.667-1.524-1.524-3.048-4.571-3.048-9.143s0-6.095 4.571-9.143c3.048-1.524 32-18.286 36.571-21.333s9.143-9.143 13.714-25.905c4.571-16.762 10.667-56.381 10.667-59.429s1.524-4.571 1.524-4.571 0 3.048 3.048 18.286c1.524 15.238 3.048 47.238 12.19 50.286s15.238 3.048 19.81 6.095c4.571 1.524 6.095 3.048 3.048 3.048s-4.571 0-1.524 0c1.524 1.524 3.048 1.524 3.048 1.524 1.524 1.524-6.095-1.524-3.048 0s3.048 3.048 3.048 3.048v0c0 0 0-1.524-1.524-1.524-3.048-1.524-1.524 0 0 1.524s-1.524 1.524-3.048 1.524c-1.524 0 3.048 1.524 4.571 3.048s1.524 3.048 1.524 4.571c0 0-1.524-3.048-3.048-3.048-1.524-1.524-1.524 0 0 1.524 1.524 3.048 3.048 6.095 3.048 7.619s-1.524 12.19-1.524 16.762c0 4.571 0 30.476 6.095 44.19s54.857 32 53.333-36.571c0-6.095-3.048-19.81-3.048-19.81s1.524-6.095 3.048-6.095c-3.048 0-4.571 4.571-4.571 4.571-1.524 3.048-1.524 0 0-1.524 1.524-3.048 3.048-6.095 3.048-6.095s1.524-3.048-1.524 0c-3.048 3.048-3.048 3.048-3.048 4.571 0 0-3.048 1.524 0-3.048s4.571-6.095 6.095-6.095c1.524 0 3.048-1.524 0-1.524-4.571 0-6.095 3.048-7.619 4.571s0 0 0-1.524c1.524-1.524 4.571-4.571 4.571-6.095 1.524-1.524 6.095-4.571 1.524-3.048-3.048 0-4.571 3.048-6.095 4.571s1.524-3.048 3.048-4.571c3.048-3.048 7.619-4.571 4.571-4.571-1.524 0-3.048 0-4.571 0 1.524 0 7.619-3.048 9.143-3.048s12.19-1.524 13.714-3.048c1.524 0 4.571-3.048 6.095-7.619 1.524-3.048 3.048-19.81 4.571-28.952s1.524-19.81 3.048-24.381c1.524-4.571 1.524-15.238 3.048-18.286 0-1.524 1.524-4.571 1.524-10.667 0 0 0 1.524 0 1.524 1.524 3.048 15.238 7.619 15.238 7.619 1.524 0 9.143 3.048 10.667 4.571s0 7.619 1.524 10.667c1.524 3.048 1.524 4.571 1.524 4.571s-1.524 0-3.048 4.571c-1.524 3.048-3.048 15.238-1.524 15.238s3.048 0 3.048 0c0 0-1.524 9.143-1.524 10.667s0 6.095 1.524 10.667c0 1.524 0 0 0 1.524 0 0 0 1.524-1.524 1.524-1.524-1.524-1.524-3.048-1.524-3.048 0 3.048-1.524 3.048-1.524-3.048 0-4.571-1.524 0-1.524 0s0-4.571 0-6.095c0-1.524-1.524 1.524-1.524 0 0 0 1.524-3.048 1.524-3.048 0-1.524-1.524 1.524-1.524 0 0 0 0 0 0-1.524-1.524-4.571 1.524-7.619-1.524-6.095-1.524 0 1.524-6.095 1.524-7.619 0 0-1.524 1.524-1.524 1.524 0-1.524 1.524-7.619 1.524-7.619-1.524 0-6.095 7.619-7.619 10.667-1.524 9.143-4.571 22.857 10.667 28.952 3.048 1.524 7.619-1.524 7.619 0 6.095 4.571 12.19 9.143 18.286 7.619 7.619 0 13.714-6.095 16.762-10.667 0 0 13.714 6.095 15.238-13.714 0-9.143-4.571-24.381-6.095-25.905 0 0 1.524 6.095 1.524 9.143 0 1.524-3.048-4.571 0 3.048 0 0 0 1.524 0 3.048 0 0-1.524 0-1.524 0 1.524 3.048 1.524 7.619-1.524 4.571 0-1.524 1.524 4.571 1.524 6.095 0 0-1.524-3.048-1.524-1.524 1.524 7.619-1.524 0-1.524 1.524s0 6.095 0 6.095c0 0-1.524-1.524-1.524-1.524 0 1.524-1.524 3.048-1.524 3.048 0-1.524 0-3.048 0-4.571 0-3.048 0-12.19 0-13.714s0-4.571 0-4.571 0 1.524 1.524 0c0 0 1.524-1.524 0-4.571s-1.524-6.095-1.524-7.619c0-1.524 0-3.048-1.524-4.571 7.619 3.048 7.619 3.048 7.619 3.048s-1.524-3.048-1.524-4.571c0-1.524 1.524-1.524 1.524-1.524s3.048-1.524 4.571-1.524c1.524 0 1.524 0 3.048-1.524s1.524-1.524 0-4.571-1.524-3.048-1.524-3.048 16.762-10.667 18.286-12.19c1.524-1.524 3.048-1.524 4.571-3.048s3.048-7.619 3.048-13.714c0-6.095 1.524-16.762 1.524-21.333s3.048-19.81 3.048-25.905c0-6.095 0-18.286 0-21.333s0-10.667 0-18.286c0-7.619-1.524-16.762-1.524-21.333s-1.524-10.667-1.524-13.714c0-1.524-1.524-9.143-3.048-12.19s-3.048-4.571-3.048-6.095c0 0 0-3.048 0-4.571 0 0 1.524-1.524-1.524-1.524s-3.048 1.524-3.048 1.524-1.524-4.571-4.571-7.619c-3.048-3.048-7.619-9.143-7.619-10.667 0 0-4.571-4.571-4.571-6.095s-1.524-3.048-1.524-6.095c0-3.048 0-21.333 0-21.333 0-1.524-4.571-4.571-6.095-3.048-1.524 0-3.048-10.667-1.524-13.714 0-3.048 1.524-13.714 1.524-16.762s0-16.762 0-19.81c0-4.571-3.048-13.714-3.048-15.238 0-3.048-3.048-22.857-3.048-24.381s-1.524-10.667-1.524-13.714c0-1.524 1.524-9.143 3.048-10.667s12.19-6.095 13.714-6.095c4.571-1.524 10.667-10.667 3.048-13.714-1.524-1.524-12.19-3.048-16.762-1.524s-9.143 4.571-16.762 6.095c-7.619 1.524-4.571 10.667-3.048 13.714s1.524 6.095 1.524 9.143c0 3.048 1.524 9.143 0 15.238 0 6.095-1.524 19.81-1.524 22.857-1.524 4.571-1.524 18.286-1.524 22.857 0 3.048 1.524 12.19 1.524 13.714 0 3.048 0 9.143-1.524 12.19s-1.524 13.714-1.524 16.762c0 1.524 0 9.143 0 9.143 0 1.524-1.524 1.524-1.524 1.524s0-10.667 0-13.714c0-3.048-3.048-12.19-4.571-15.238s-3.048-7.619-3.048-10.667c0-3.048-1.524-13.714-1.524-16.762-1.524-3.048-3.048-12.19-4.571-15.238s-3.048-13.714-4.571-16.762c0-3.048-1.524-21.333-1.524-22.857s4.571-21.333 4.571-22.857 0-9.143-6.095-10.667c-3.048-1.524-6.095-1.524-9.143 1.524-3.048 1.524-7.619 6.095-7.619 10.667 0 9.143 3.048 22.857 3.048 24.381 0 3.048 0 7.619 0 10.667 1.524 3.048 1.524 12.19 1.524 16.762s-1.524 15.238-1.524 19.81c0 4.571 0 12.19 0 15.238 1.524 3.048 3.048 12.19 4.571 16.762s3.048 10.667 3.048 13.714c0 3.048 1.524 7.619 0 7.619s-10.667 0-12.19 1.524c-1.524 0-3.048 12.19-3.048 18.286 0 4.571 0 21.333 0 24.381s0 18.286 1.524 19.81c0 3.048-1.524 3.048-1.524 3.048-1.524 0-1.524-1.524-1.524 3.048s0 22.857-1.524 24.381c0 0 0 0 0 0s0 0 0 0-1.524-1.524-3.048-1.524c0 0-1.524 0-1.524 0-1.524-4.571-3.048-9.143-4.571-10.667-1.524-3.048-3.048-4.571-3.048-7.619s0-4.571-1.524-6.095c-1.524 0-3.048 0-3.048 0 0-1.524 0-3.048-1.524-6.095 0 0 0 0 0 0 0-1.524 0 0 0-1.524s-1.524-1.524-1.524-1.524c0 0 0 0 0 0s0 0 1.524 0c0 0 1.524 0 1.524 0s1.524-1.524 0-1.524c-1.524 0-1.524 0-1.524 0s0-1.524 0-1.524c-1.524 0-1.524-1.524-1.524-1.524-1.524-7.619-3.048-13.714-3.048-15.238 0-3.048-4.571-28.952-4.571-28.952s1.524-1.524 3.048-3.048c1.524-1.524 4.571 0 1.524-7.619s-6.095-19.81-6.095-19.81-1.524-3.048-4.571-3.048c-3.048 0-3.048 0-3.048 0s-7.619-27.429-9.143-33.524c0-12.19-3.048-24.381 0-30.476s12.19-15.238 15.238-19.81c3.048-4.571 9.143-10.667 9.143-16.762s-13.714-9.143-18.286-9.143c-3.048 1.524-6.095 4.571-10.667 10.667-4.571 7.619-3.048 9.143-6.095 12.19s-6.095 1.524-10.667 6.095c-6.095 4.571-6.095 6.095-4.571 9.143 0 3.048 3.048 15.238 4.571 15.238 1.524 1.524 1.524 1.524 1.524 1.524s4.571 41.143 4.571 42.667c0 3.048-3.048-7.619-7.619-9.143-3.048-1.524-3.048-1.524-3.048-1.524s-4.571-19.81-4.571-22.857c1.524-3.048 1.524-6.095 0-9.143s0-1.524 0-4.571c0-3.048 3.048-7.619 0-12.19-1.524-4.571-4.571-6.095-4.571-6.095s-1.524-16.762-1.524-19.81c0-1.524-1.524-7.619-6.095-9.143-3.048 0-18.286 1.524-19.81 4.571s-1.524 10.667 0 13.714c1.524 4.571 6.095 13.714 7.619 15.238s1.524 3.048 1.524 3.048 4.571 7.619 4.571 9.143c0 1.524 3.048 6.095 3.048 7.619 0 3.048 0 6.095 0 9.143s-3.048 28.952-3.048 30.476c0 1.524-6.095 3.048-6.095 7.619s1.524 10.667 0 13.714c-4.571 4.571-6.095 7.619-6.095 10.667 1.524 3.048 6.095 9.143 7.619 10.667s3.048 10.667 3.048 12.19c0 1.524-1.524 16.762-1.524 19.81s-1.524 41.143-3.048 44.19c-1.524 3.048-3.048 42.667-6.095 54.857-3.048 18.286 1.524 60.952 1.524 67.048s-3.048 24.381-4.571 25.905c0 1.524-1.524-7.619-3.048-12.19 0-4.571-6.095-27.429-9.143-33.524-1.524-7.619-4.571-6.095-4.571-12.19s0-18.286 0-22.857c0-6.095-1.524-9.143-1.524-12.19s0-9.143-1.524-13.714c-1.524-4.571-1.524-6.095-1.524-9.143 0-1.524 0-1.524 0-1.524s3.048-1.524 1.524-3.048c-1.524-1.524-4.571-3.048-6.095-3.048s-1.524-3.048-3.048-3.048c-1.524 0-7.619-1.524-10.667 0-3.048 3.048-3.048 4.571-3.048 4.571s-3.048 1.524-4.571 4.571c-1.524 3.048 0 6.095 0 6.095s-4.571 1.524-4.571 1.524-3.048-21.333-3.048-36.571c0-24.381-1.524-70.095-1.524-77.714-1.524-12.19-12.19-111.238-13.714-111.238-1.524-1.524 0-4.571 1.524-10.667 4.571-19.81-19.81-22.857-24.381-15.238-3.048 4.571-10.667 15.238-9.143 18.286s-1.524 3.048-1.524 3.048-6.095-3.048-4.571 10.667c1.524 15.238 1.524 45.714 1.524 65.524s4.571 50.286 3.048 53.333c0 3.048-9.143 73.143-10.667 77.714s-3.048 7.619-3.048 7.619-15.238-68.571-16.762-83.81c-1.524-13.714-3.048-105.143-3.048-114.286s-9.143-30.476-15.238-33.524c-6.095-1.524-10.667-7.619-10.667-7.619s-4.571-9.143-7.619-12.19c-6.095-7.619-38.095-9.143-25.905 13.714 4.571 9.143 7.619 10.667 7.619 10.667s-1.524 9.143-3.048 33.524c-4.571 7.619-7.619 15.238-10.667 19.81-3.048 3.048-12.19 12.19-10.667 16.762 0 3.048 6.095 7.619 6.095 7.619s0 0 0 0v13.714c0 0-4.571 10.667-6.095 13.714s-3.048 9.143-3.048 12.19c0 3.048 0 9.143 0 9.143s-13.714-1.524-13.714 4.571c0 6.095-1.524 19.81-4.571 19.81-1.524 0-3.048 1.524-4.571 3.048s-3.048 3.048-3.048 3.048-1.524 0-1.524-3.048c0-3.048 1.524-16.762 1.524-19.81s3.048-25.905 3.048-27.429c0-1.524-7.619-6.095-7.619-6.095s-1.524-7.619-1.524-10.667c0-1.524-1.524-6.095 0-10.667s6.095-18.286 4.571-27.429c0-10.667 1.524-30.476 1.524-32 1.524-1.524 1.524-6.095 1.524-6.095s3.048-6.095 3.048-10.667c0-4.571 0-4.571 0-4.571s3.048-6.095 1.524-7.619c-1.524-1.524-9.143-4.571-10.667-4.571s-6.095-6.095-7.619-7.619c-1.524-1.524-10.667-6.095-18.286-3.048s-12.19 7.619-7.619 13.714c4.571 6.095 9.143 9.143 10.667 10.667s3.048 3.048 4.571 3.048c1.524 0 1.524 0 1.524 0s6.095 6.095 6.095 7.619c0 3.048-6.095 27.429-6.095 27.429s-6.095 22.857-7.619 25.905c-1.524 4.571-3.048 21.333-3.048 24.381 0 1.524-1.524 3.048-1.524 3.048s-7.619-1.524-9.143-1.524c-1.524 0-1.524 7.619-3.048 13.714 0 6.095-3.048 44.19-3.048 44.19s-4.571 30.476-4.571 32c0 1.524 3.048 12.19 1.524 18.286s-3.048 15.238-3.048 15.238l3.048-7.619-9.143-16.762c0 0 0-6.095 0-7.619-1.524-1.524-4.571-9.143-4.571-10.667-1.524-1.524-1.524-6.095-1.524-7.619s3.048-4.571 3.048-6.095c0 0 0-3.048 0-3.048-1.524 0-1.524 0-1.524 0s1.524-1.524 0-3.048c-1.524-1.524-3.048 0-3.048 0s0-1.524-1.524-1.524c0 0-3.048 0-3.048 1.524s-3.048 0-4.571 1.524c-1.524 1.524-4.571 6.095-4.571 10.667 1.524 4.571 0 7.619 3.048 13.714zM768 53.333c-62.476-44.19-137.143-85.333-214.857-102.095-38.095-4.571-77.714-6.095-115.81 1.524-83.81 16.762-155.429 70.095-211.81 132.571-97.524 109.714-179.81 263.619-195.048 417.524 0 1.524 0 3.048 0 4.571 0 3.048 0 6.095 0 9.143-3.048 45.714 1.524 91.429 12.19 134.095 30.476 109.714 106.667 175.238 201.143 211.81-15.238-12.19-32-25.905-45.714-39.619-187.429-187.429-188.952-490.667-3.048-678.095s489.143-188.952 676.571-3.048c150.857 150.857 181.333 377.905 88.381 559.238 27.429-30.476 51.81-64 68.571-102.095 10.667-22.857 16.762-47.238 21.333-70.095 28.952-193.524-134.095-371.81-281.905-475.429zM390.095 412.952c0-1.524 6.095-7.619 9.143-15.238s9.143-22.857 9.143-24.381c3.048 21.333 6.095 45.714 7.619 56.381 1.524 15.238 1.524 18.286-10.667 19.81-1.524 0-4.571 1.524-7.619 3.048 0-3.048-1.524-6.095-6.095-10.667-7.619-7.619-7.619-7.619-7.619-7.619s1.524-3.048 3.048-6.095c1.524-3.048 3.048-13.714 3.048-15.238zM412.952 495.238c0 0 3.048 7.619 4.571 16.762s1.524 22.857 3.048 28.952c1.524 6.095 4.571 35.048 4.571 41.143s0 19.81 0 19.81-1.524-10.667-3.048-13.714c-1.524-3.048-1.524-9.143-3.048-16.762s-3.048-16.762-4.571-21.333c-1.524-4.571-1.524-19.81-1.524-25.905-1.524-6.095-1.524-10.667-1.524-15.238s1.524-13.714 1.524-13.714v0z" />
<glyph unicode="&#xe92e;" glyph-name="roundelForm" horiz-adv-x="1080" d="M517.824 770.036c7.153-12.39 4.090-27.55-6.842-33.862s-25.593-1.385-32.747 11.005c-7.153 12.39-4.090 27.55 6.842 33.862s25.593 1.385 32.747-11.005zM1075.81 534.857c0 4.571-1.524 7.619-3.048 12.19v1.524c-18.286 89.905-77.714 161.524-155.429 217.905-13.714 18.286-27.429 35.048-44.19 51.81-158.476 161.524-403.81 184.381-588.19 71.619-83.81-18.286-158.476-57.905-213.333-124.952-86.857-108.19-83.81-249.905-42.667-380.952 22.857-74.667 57.905-146.286 94.476-205.714 54.857-88.381 129.524-173.714 225.524-216.381 60.952-27.429 126.476-30.476 190.476-19.81 22.857 3.048 47.238 7.619 71.619 15.238 208.762 62.476 454.095 275.81 469.333 505.905 0 24.381-1.524 48.762-4.571 71.619zM655.238 604.952l-239.238-3.048-6.095 28.952 237.714 3.048 7.619-28.952zM467.81 364.19l-6.095 28.952 249.905 16.762 7.619-28.952-251.429-16.762zM728.381 348.952l7.619-28.952-254.476-19.81-6.095 28.952 252.952 19.81zM454.095 426.667l-6.095 28.952 246.857 12.19 7.619-28.952-248.381-12.19zM441.905 484.571l-6.095 28.952 243.81 10.667 7.619-28.952-245.333-10.667zM428.19 544l-6.095 28.952 240.762 7.619 7.619-28.952-242.286-7.619zM384 757.333c19.81 1.524 28.952 12.19 36.571 21.333 7.619 7.619 25.905 25.905 67.048 22.857 35.048-3.048 56.381-12.19 77.714-28.952 22.857-18.286 36.571-22.857 44.19-24.381 7.619 0 19.81-4.571 24.381-19.81s9.143-39.619 9.143-39.619 4.571-15.238-12.19-16.762c-16.762-1.524-225.524 0-225.524 0s-22.857-4.571-27.429 15.238c-4.571 18.286-10.667 48.762-10.667 48.762s-4.571 19.81 16.762 21.333zM339.81 731.429l111.238-492.19 339.81 39.619-134.095 448c0 0 48.762 13.714 60.952-30.476s126.476-409.905 126.476-409.905 24.381-51.81-21.333-57.905c-45.714-7.619-380.952-51.81-380.952-51.81s-47.238-10.667-57.905 48.762c-10.667 59.429-100.571 466.286-100.571 466.286s-12.19 47.238 56.381 39.619zM768 53.333c-62.476-44.19-137.143-85.333-214.857-102.095-38.095-4.571-77.714-6.095-115.81 1.524-83.81 16.762-155.429 70.095-211.81 132.571-97.524 109.714-179.81 263.619-195.048 417.524 0 1.524 0 3.048 0 4.571 0 3.048 0 6.095 0 9.143-3.048 45.714 1.524 91.429 12.19 134.095 30.476 109.714 106.667 175.238 201.143 211.81-15.238-12.19-32-25.905-45.714-39.619-187.429-187.429-188.952-490.667-3.048-678.095s489.143-188.952 676.571-3.048c150.857 150.857 181.333 377.905 88.381 559.238 27.429-30.476 51.81-64 68.571-102.095 10.667-22.857 16.762-47.238 21.333-70.095 28.952-193.524-134.095-371.81-281.905-475.429z" />
<glyph unicode="&#xe92f;" glyph-name="roundelHandShake" horiz-adv-x="1080" d="M1075.81 534.857c0 4.571-1.524 7.619-3.048 12.19v1.524c-18.286 89.905-77.714 161.524-155.429 217.905-13.714 18.286-27.429 35.048-44.19 51.81-158.476 161.524-403.81 184.381-588.19 71.619-83.81-18.286-158.476-57.905-213.333-124.952-86.857-108.19-83.81-249.905-42.667-380.952 22.857-74.667 57.905-146.286 94.476-205.714 54.857-88.381 129.524-173.714 225.524-216.381 60.952-27.429 126.476-30.476 190.476-19.81 22.857 3.048 47.238 7.619 71.619 15.238 208.762 62.476 454.095 275.81 469.333 505.905 0 24.381-1.524 48.762-4.571 71.619zM463.238 650.667c3.048 0 91.429 3.048 111.238 3.048 18.286 1.524 35.048-9.143 35.048-10.667 0 0 48.762-27.429 77.714-42.667 24.381-12.19 32-10.667 36.571-10.667s25.905 1.524 143.238 12.19h4.571v18.286c10.667 1.524 21.333 3.048 32 4.571 19.81-48.762 30.476-102.095 30.476-158.476 0-33.524-4.571-67.048-12.19-97.524l-22.857 12.19v18.286l-3.048 1.524c-13.714 3.048-38.095-4.571-38.095-4.571h-1.524l-19.81-18.286c-4.571 6.095-10.667 9.143-10.667 10.667 0 0-173.714 120.381-246.857 170.667-9.143 4.571-16.762 6.095-19.81 7.619-6.095 3.048-10.667 1.524-12.19 1.524h-3.048c-25.905-3.048-59.429-3.048-59.429-3.048h-3.048l-1.524-1.524c-53.333-71.619-112.762-71.619-129.524-60.952-13.714 9.143 1.524 33.524 1.524 33.524 3.048 3.048 56.381 70.095 74.667 96 13.714 19.81 35.048 18.286 36.571 18.286zM248.381 601.905c1.524 0 36.571-12.19 76.19-6.095 25.905 4.571 48.762 6.095 68.571 6.095-22.857-28.952-50.286-64-51.81-65.524-7.619-10.667-15.238-35.048 1.524-45.714 21.333-15.238 85.333-12.19 141.714 60.952 9.143 0 39.619 0 62.476 4.571 0 0 12.19 0 27.429-6.095 71.619-50.286 245.333-169.143 245.333-169.143s28.952-19.81 19.81-51.81c-4.571-13.714-16.762-32-35.048-38.095-12.19-4.571-25.905-1.524-38.095 9.143-35.048 28.952-126.476 100.571-128 102.095s-4.571 1.524-6.095-1.524c-1.524-1.524-1.524-4.571 1.524-6.095 1.524 0 91.429-73.143 126.476-102.095 1.524-1.524 4.571-3.048 6.095-4.571 0-6.095 1.524-25.905-9.143-39.619-13.714-18.286-36.571-22.857-47.238-18.286-9.143 4.571-76.19 44.19-109.714 65.524-1.524 1.524-4.571 0-6.095-1.524s0-4.571 1.524-6.095c3.048-1.524 76.19-47.238 103.619-62.476-1.524-7.619-6.095-28.952-21.333-41.143-10.667-7.619-22.857-10.667-39.619-9.143-22.857 3.048-50.286 15.238-80.762 36.571-1.524 1.524-4.571 1.524-6.095-1.524-1.524-1.524-1.524-4.571 1.524-6.095 27.429-16.762 50.286-28.952 71.619-33.524-9.143-15.238-24.381-39.619-64-28.952-16.762 4.571-48.762 21.333-82.286 42.667 4.571 21.333-1.524 45.714-1.524 47.238-1.524 3.048-1.524 7.619-3.048 10.667-6.095 22.857-9.143 39.619-42.667 36.571-1.524 0-1.524 0-3.048 0 0 18.286-6.095 38.095-32 45.714-9.143 3.048-21.333 1.524-33.524-10.667 0 21.333-6.095 42.667-35.048 48.762-10.667 3.048-19.81 0-27.429-4.571-9.143-7.619-16.762-19.81-21.333-32-7.619 7.619-13.714 13.714-18.286 18.286-10.667 10.667-39.619 15.238-42.667 15.238h-4.571l-3.048-18.286-59.429 7.619c-12.19 38.095-18.286 79.238-18.286 120.381 0 59.429 12.19 114.286 35.048 166.095 38.095-4.571 73.143-9.143 82.286-12.19v-18.286l-1.524-3.048zM347.429 242.286c4.571 10.667 6.095 21.333 7.619 28.952v3.048c1.524 3.048 1.524 9.143 3.048 13.714 12.19 27.429 27.429 22.857 33.524 22.857 30.476-7.619 27.429-38.095 19.81-67.048v-3.048c-3.048-12.19-10.667-41.143-24.381-50.286-4.571-3.048-9.143-3.048-13.714-1.524-28.952 7.619-28.952 27.429-25.905 53.333zM320 217.905c-4.571-3.048-9.143-3.048-15.238-3.048-32 7.619-32 28.952-28.952 62.476v0c0 0 4.571 51.81 27.429 67.048 4.571 3.048 9.143 4.571 13.714 4.571 1.524 0 4.571 0 6.095-1.524 33.524-7.619 30.476-41.143 22.857-73.143l-1.524-3.048c-1.524-12.19-9.143-44.19-24.381-53.333zM420.571 239.238v3.048c1.524 6.095 3.048 13.714 4.571 22.857 1.524 0 3.048 1.524 4.571 1.524 25.905 1.524 27.429-7.619 33.524-30.476 1.524-3.048 1.524-6.095 3.048-10.667 3.048-10.667 7.619-41.143-4.571-54.857-4.571-6.095-10.667-7.619-19.81-7.619-21.333 1.524-32 13.714-33.524 38.095 6.095 12.19 9.143 28.952 12.19 38.095zM768 53.333c-62.476-44.19-137.143-85.333-214.857-102.095-38.095-4.571-77.714-6.095-115.81 1.524-83.81 16.762-155.429 70.095-211.81 132.571-97.524 109.714-179.81 263.619-195.048 417.524 0 1.524 0 3.048 0 4.571 0 3.048 0 6.095 0 9.143-3.048 45.714 1.524 91.429 12.19 134.095 30.476 109.714 106.667 175.238 201.143 211.81-15.238-12.19-32-25.905-45.714-39.619-187.429-187.429-188.952-490.667-3.048-678.095s489.143-188.952 676.571-3.048c150.857 150.857 181.333 377.905 88.381 559.238 27.429-30.476 51.81-64 68.571-102.095 10.667-22.857 16.762-47.238 21.333-70.095 28.952-193.524-134.095-371.81-281.905-475.429z" />
<glyph unicode="&#xe930;" glyph-name="roundelPound" horiz-adv-x="1080" d="M1075.81 534.857c0 4.571-1.524 7.619-3.048 12.19v1.524c-18.286 89.905-77.714 161.524-155.429 217.905-13.714 18.286-27.429 35.048-44.19 51.81-158.476 161.524-403.81 184.381-588.19 71.619-83.81-18.286-158.476-57.905-213.333-124.952-86.857-108.19-83.81-249.905-42.667-380.952 22.857-74.667 57.905-146.286 94.476-205.714 54.857-88.381 129.524-173.714 225.524-216.381 60.952-27.429 126.476-30.476 190.476-19.81 22.857 3.048 47.238 7.619 71.619 15.238 208.762 62.476 454.095 275.81 469.333 505.905 0 24.381-1.524 48.762-4.571 71.619zM359.619 295.619c0 16.762 7.619 24.381 24.381 24.381h41.143v137.143h-44.19c-13.714 0-21.333 7.619-21.333 24.381v30.476c0 15.238 7.619 22.857 21.333 22.857h44.19v50.286c0 25.905 4.571 48.762 12.19 70.095 9.143 21.333 21.333 38.095 36.571 53.333 16.762 15.238 36.571 25.905 60.952 33.524s51.81 12.19 82.286 12.19c10.667 0 21.333 0 33.524-1.524s22.857-1.524 33.524-4.571c9.143-1.524 15.238-4.571 18.286-9.143s6.095-10.667 4.571-18.286l-3.048-39.619c0-6.095-1.524-10.667-4.571-13.714s-6.095-4.571-12.19-4.571c-3.048 0-7.619 0-12.19 1.524s-9.143 1.524-13.714 3.048-10.667 1.524-16.762 3.048c-6.095 1.524-13.714 1.524-22.857 1.524-18.286 0-32-3.048-45.714-7.619s-22.857-12.19-30.476-21.333c-7.619-9.143-13.714-21.333-16.762-35.048s-4.571-28.952-4.571-47.238v-25.905h94.476c13.714 0 21.333-7.619 21.333-22.857v-30.476c0-15.238-7.619-24.381-21.333-24.381h-94.476v-137.143h152.381c15.238 0 22.857-7.619 22.857-24.381v-41.143c0-9.143-1.524-13.714-6.095-18.286-3.048-3.048-9.143-6.095-16.762-6.095h-292.571c-7.619 0-13.714 1.524-18.286 6.095s-6.095 9.143-6.095 18.286v41.143zM768 53.333c-62.476-44.19-137.143-85.333-214.857-102.095-38.095-4.571-77.714-6.095-115.81 1.524-83.81 16.762-155.429 70.095-211.81 132.571-97.524 109.714-179.81 263.619-195.048 417.524 0 1.524 0 3.048 0 4.571 0 3.048 0 6.095 0 9.143-3.048 45.714 1.524 91.429 12.19 134.095 30.476 109.714 106.667 175.238 201.143 211.81-15.238-12.19-32-25.905-45.714-39.619-187.429-187.429-188.952-490.667-3.048-678.095s489.143-188.952 676.571-3.048c150.857 150.857 181.333 377.905 88.381 559.238 27.429-30.476 51.81-64 68.571-102.095 10.667-22.857 16.762-47.238 21.333-70.095 28.952-193.524-134.095-371.81-281.905-475.429z" />
<glyph unicode="&#xe931;" glyph-name="roundelQuestion" horiz-adv-x="1080" d="M1075.81 534.857c0 4.571-1.524 7.619-3.048 12.19v1.524c-18.286 89.905-77.714 161.524-155.429 217.905-13.714 18.286-27.429 35.048-44.19 51.81-158.476 161.524-403.81 184.381-588.19 71.619-83.81-18.286-158.476-57.905-213.333-124.952-86.857-108.19-83.81-249.905-42.667-380.952 22.857-74.667 57.905-146.286 94.476-205.714 54.857-88.381 129.524-173.714 225.524-216.381 60.952-27.429 126.476-30.476 190.476-19.81 22.857 3.048 47.238 7.619 71.619 15.238 208.762 62.476 454.095 275.81 469.333 505.905 0 24.381-1.524 48.762-4.571 71.619zM353.524 745.143c0 3.048 1.524 6.095 3.048 9.143s3.048 4.571 6.095 6.095c3.048 1.524 6.095 3.048 10.667 6.095 9.143 4.571 21.333 7.619 33.524 10.667s25.905 6.095 38.095 7.619c13.714 3.048 27.429 4.571 41.143 4.571 13.714 1.524 27.429 1.524 39.619 1.524 25.905 0 50.286-3.048 73.143-9.143s42.667-15.238 59.429-28.952c16.762-12.19 28.952-28.952 39.619-47.238 9.143-19.81 13.714-41.143 13.714-67.048 0-21.333-3.048-41.143-10.667-57.905-6.095-18.286-15.238-35.048-27.429-50.286-10.667-15.238-24.381-30.476-38.095-44.19s-28.952-27.429-44.19-39.619c-7.619-6.095-13.714-13.714-15.238-19.81-3.048-6.095-3.048-13.714-3.048-21.333v-39.619c0-7.619-1.524-15.238-4.571-19.81s-10.667-7.619-19.81-7.619h-59.429c-9.143 0-15.238 1.524-18.286 6.095s-6.095 10.667-6.095 21.333v57.905c0 9.143 1.524 16.762 4.571 25.905s7.619 18.286 15.238 25.905c12.19 12.19 22.857 24.381 35.048 35.048s22.857 21.333 32 32c9.143 10.667 18.286 22.857 24.381 33.524 6.095 12.19 9.143 24.381 9.143 39.619 0 22.857-7.619 41.143-22.857 53.333s-36.571 18.286-62.476 18.286c-16.762 0-32-1.524-45.714-4.571s-24.381-6.095-35.048-10.667c-10.667-3.048-19.81-7.619-27.429-10.667s-15.238-4.571-22.857-4.571c-9.143 0-15.238 6.095-16.762 18.286l-3.048 54.857c4.571 7.619 4.571 12.19 4.571 15.238zM588.19 199.619c0-10.667-1.524-19.81-6.095-27.429-3.048-9.143-9.143-16.762-15.238-22.857s-13.714-12.19-22.857-15.238c-9.143-3.048-18.286-6.095-27.429-6.095s-19.81 1.524-27.429 6.095c-9.143 3.048-16.762 9.143-22.857 15.238s-12.19 13.714-15.238 22.857c-3.048 9.143-6.095 18.286-6.095 27.429s1.524 19.81 6.095 27.429c3.048 9.143 9.143 16.762 15.238 22.857s13.714 12.19 22.857 15.238c9.143 3.048 18.286 6.095 27.429 6.095s19.81-1.524 27.429-6.095c9.143-3.048 16.762-9.143 22.857-15.238s12.19-13.714 15.238-22.857c4.571-7.619 6.095-16.762 6.095-27.429zM768 53.333c-62.476-44.19-137.143-85.333-214.857-102.095-38.095-4.571-77.714-6.095-115.81 1.524-83.81 16.762-155.429 70.095-211.81 132.571-97.524 109.714-179.81 263.619-195.048 417.524 0 1.524 0 3.048 0 4.571 0 3.048 0 6.095 0 9.143-3.048 45.714 1.524 91.429 12.19 134.095 30.476 109.714 106.667 175.238 201.143 211.81-15.238-12.19-32-25.905-45.714-39.619-187.429-187.429-188.952-490.667-3.048-678.095s489.143-188.952 676.571-3.048c150.857 150.857 181.333 377.905 88.381 559.238 27.429-30.476 51.81-64 68.571-102.095 10.667-22.857 16.762-47.238 21.333-70.095 28.952-193.524-134.095-371.81-281.905-475.429z" />
<glyph unicode="&#xe932;" glyph-name="roundelTree" horiz-adv-x="1080" d="M1075.81 534.857c0 4.571-1.524 7.619-3.048 12.19 0 0 0 1.524 0 1.524-18.286 89.905-77.714 161.524-155.429 217.905-13.714 18.286-27.429 35.048-44.19 51.81-158.476 161.524-403.81 184.381-588.19 71.619-83.81-18.286-158.476-57.905-213.333-124.952-86.857-108.19-83.81-249.905-42.667-380.952 22.857-74.667 57.905-146.286 94.476-205.714 54.857-88.381 129.524-173.714 225.524-216.381 60.952-27.429 126.476-30.476 190.476-19.81 22.857 3.048 47.238 7.619 71.619 15.238 208.762 62.476 454.095 275.81 469.333 505.905 0 24.381-1.524 48.762-4.571 71.619zM425.143 640c-1.524 4.571-1.524 9.143-1.524 15.238 0 25.905 18.286 47.238 41.143 47.238 0 4.571-1.524 7.619-1.524 12.19 0 33.524 24.381 60.952 54.857 60.952 6.095 0 10.667-1.524 15.238-3.048 4.571 15.238 18.286 27.429 33.524 27.429 6.095 0 12.19-1.524 18.286-6.095 7.619 15.238 21.333 24.381 38.095 24.381 19.81 0 36.571-15.238 41.143-35.048 6.095 3.048 10.667 4.571 16.762 4.571 19.81 0 36.571-13.714 41.143-33.524 4.571 1.524 10.667 3.048 16.762 3.048 27.429 0 50.286-24.381 50.286-54.857 0-6.095-1.524-12.19-3.048-16.762 16.762-3.048 30.476-18.286 30.476-38.095 0 0 0-1.524 0-1.524 24.381-6.095 42.667-32 42.667-60.952 0-24.381-12.19-44.19-28.952-54.857 0-3.048 1.524-6.095 1.524-9.143 0-21.333-15.238-39.619-35.048-39.619-3.048 0-6.095 0-9.143 1.524 0 0 0 0 0-1.524 0-27.429-21.333-48.762-48.762-48.762-15.238 0-28.952 7.619-38.095 18.286-4.571-4.571-10.667-6.095-16.762-6.095-9.143 0-16.762 4.571-21.333 12.19-3.048-10.667-4.571-21.333-4.571-33.524 0-30.476 30.476-141.714 32-160 0 0-16.762-1.524-45.714 7.619-25.905 7.619-47.238 19.81-47.238 19.81 1.524 9.143 0 7.619 1.524 18.286 0 0 7.619 42.667 10.667 62.476 0 0 0 0 0 0 4.571 35.048 1.524 60.952-10.667 83.81-7.619-3.048-13.714-4.571-22.857-4.571-7.619 0-16.762 1.524-22.857 4.571-7.619-15.238-21.333-24.381-38.095-24.381-21.333 0-38.095 16.762-42.667 39.619-3.048 0-6.095-1.524-7.619-1.524-24.381 0-44.19 21.333-44.19 48.762 0 1.524 0 1.524 0 3.048-18.286 12.19-30.476 33.524-30.476 59.429 3.048 24.381 15.238 47.238 35.048 59.429zM600.381 271.238c163.048-73.143 277.333 24.381 281.905 24.381 0 0-155.429-158.476-353.524-67.048s-339.81 12.19-339.81 12.19c126.476 156.952 277.333 91.429 411.429 30.476zM790.857 219.429c0 0-112.762-120.381-304.762-39.619-121.905 51.81-161.524 57.905-227.048 65.524 0 0 42.667 9.143 76.19 9.143 74.667 0 153.905-28.952 217.905-53.333 137.143-53.333 233.143 18.286 237.714 18.286zM768 53.333c-62.476-44.19-137.143-85.333-214.857-102.095-38.095-6.095-77.714-6.095-117.333 1.524-83.81 16.762-155.429 70.095-211.81 132.571-96 109.714-178.286 263.619-193.524 417.524 0 1.524 0 3.048 0 4.571 0 3.048 0 6.095 0 9.143-3.048 45.714 1.524 91.429 12.19 134.095 30.476 109.714 106.667 175.238 201.143 211.81-15.238-12.19-32-25.905-45.714-39.619-187.429-187.429-188.952-490.667-3.048-678.095s489.143-188.952 676.571-3.048c150.857 150.857 181.333 377.905 88.381 559.238 27.429-30.476 51.81-64 68.571-102.095 10.667-22.857 16.762-47.238 21.333-70.095 28.952-193.524-134.095-371.81-281.905-475.429z" />
<glyph unicode="&#xe933;" glyph-name="search" d="M914.935 326.817c145.42 145.42 145.42 378.698 0 524.118s-378.698 145.42-524.118 0c-136.331-136.331-145.42-357.491-21.207-502.911l-24.237-24.237-36.355 6.059-309.018-305.988 84.828-84.828 309.018 305.988-6.059 36.355 24.237 24.237c145.42-124.213 363.55-118.154 502.911 21.207zM448.379 384.379c-112.095 112.095-112.095 293.87 0 405.964s293.87 112.095 405.964 0 112.095-293.87 0-405.964-293.87-112.095-405.964 0z" />
<glyph unicode="&#xe934;" glyph-name="tick" horiz-adv-x="1347" d="M431.158 151.579l-323.368 323.368-107.789-114.526 431.158-431.158 916.211 922.947-107.789 107.789-808.421-808.421z" />
<glyph unicode="&#xe935;" glyph-name="tour360" horiz-adv-x="1077" d="M954.994 557.054c-107.206 433.752-757.834 508.919-924.188-91.187 77.632 662.951 893.381 622.286 1016.606 96.116l29.574 1.232-34.503-66.542-33.271-66.542-81.329 125.69 27.11 1.232zM121.993 338.946c108.438-433.752 757.834-508.919 924.188 91.187-77.632-662.951-893.381-622.286-1016.606-96.116l-29.574-2.465 69.006 133.083 81.329-125.69h-28.342zM329.011 396.862c0 17.252-11.090 25.877-35.735 25.877-4.929 0-9.858-1.232-16.019-1.232-8.626 0-11.090 3.697-11.090 11.090v18.484c0 6.161 2.465 11.090 11.090 11.090h14.787c16.019 0 34.503 7.394 34.503 24.645s-12.323 24.645-34.503 24.645c-23.413 0-34.503-6.161-45.593-6.161-4.929 0-7.394 2.465-8.626 7.394l-2.465 22.181c-1.232 7.394 1.232 9.858 8.626 13.555 13.555 6.161 38.2 7.394 54.219 7.394 39.432 0 85.025-12.323 85.025-60.38 0-25.877-13.555-44.361-40.664-51.755 25.877-3.697 44.361-22.181 44.361-49.29 0-51.755-46.826-69.006-94.883-69.006-16.019 0-41.897 1.232-55.451 7.394-6.161 2.465-8.626 4.929-8.626 13.555l2.465 24.645c0 4.929 3.697 7.394 8.626 7.394 11.090 0 22.181-8.626 46.826-8.626 16.019 0 43.129 3.697 43.129 27.11zM468.255 448.616c11.090 14.787 27.11 23.413 48.058 23.413 41.897 0 64.077-29.574 64.077-71.471 0-40.664-29.574-75.167-82.561-75.167-64.077 0-85.025 52.987-85.025 118.296 0 57.916 25.877 113.367 98.58 113.367 16.019 0 34.503-2.465 46.826-7.394 6.161-2.465 8.626-6.161 7.394-13.555l-2.465-22.181c0-4.929-3.697-7.394-8.626-7.394-11.090 0-18.484 7.394-39.432 7.394-30.806-1.232-46.826-20.948-46.826-65.309zM499.061 431.365c-17.252 0-27.11-14.787-27.11-33.271s9.858-34.503 27.11-34.503 27.11 17.252 27.11 34.503c0 22.181-11.090 33.271-27.11 33.271zM692.525 557.054c71.471 0 83.793-56.684 83.793-115.832 0-57.916-12.323-115.832-83.793-115.832s-83.793 56.684-83.793 115.832c0 57.916 12.323 115.832 83.793 115.832zM692.525 367.288c23.413 0 28.342 29.574 28.342 73.935s-4.929 73.935-28.342 73.935-28.342-29.574-28.342-73.935c0-44.361 4.929-73.935 28.342-73.935zM856.414 557.054c27.11 0 45.593-19.716 45.593-45.593 0-24.645-18.484-44.361-45.593-44.361-25.877 0-44.361 19.716-44.361 44.361s17.252 45.593 44.361 45.593zM856.414 490.513c12.323 0 22.181 9.858 22.181 20.948 0 12.323-9.858 22.181-22.181 22.181s-20.948-9.858-20.948-22.181c-1.232-11.090 8.626-20.948 20.948-20.948z" />
<glyph unicode="&#xe936;" glyph-name="waterDrop" horiz-adv-x="780" d="M780.488 326.244c0-107.707-43.707-204.488-113.951-276.293-70.244-70.244-168.585-113.951-276.293-113.951s-206.049 43.707-276.293 113.951-113.951 168.585-113.951 276.293c0 254.439 216.976 429.268 359.024 618.146 12.488 17.171 37.463 20.293 54.634 7.805 3.122-1.561 6.244-4.683 7.805-7.805 142.049-188.878 359.024-363.707 359.024-618.146v0zM390.244 70.244v0c34.341 0 67.122 6.244 98.341 20.293 31.22 12.488 59.317 32.78 82.732 56.195s42.146 51.512 56.195 82.732v1.561c12.488 29.659 18.732 62.439 18.732 96.78 0 12.488-10.927 23.415-23.415 23.415s-23.415-10.927-23.415-23.415c0-28.098-6.244-54.634-15.61-79.61v0c-10.927-24.976-24.976-48.39-45.268-67.122-18.732-20.293-42.146-34.341-67.122-45.268-24.976-9.366-51.512-15.61-79.61-15.61-12.488 0-23.415-10.927-23.415-23.415-3.122-15.61 7.805-26.537 21.854-26.537v0zM610.341 106.146v0c56.195 56.195 90.537 134.244 90.537 220.098 0 212.293-185.756 374.634-310.634 530.732-124.878-156.098-310.634-318.439-310.634-530.732 0-85.854 35.902-163.902 90.537-220.098 56.195-56.195 134.244-90.537 220.098-90.537s162.341 34.341 220.098 90.537v0z" />
<glyph unicode="&#xe937;" glyph-name="details" horiz-adv-x="832" d="M768 896v-896h-704v896h704zM832 960h-832v-1024h832v1024zM176 755.2h483.2v-64h-483.2v64zM176 572.8h483.2v-64h-483.2v64zM176 387.2h483.2v-64h-483.2v64zM176 204.8h483.2v-64h-483.2v64z" />
<glyph unicode="&#xe938;" glyph-name="homes" horiz-adv-x="1969" d="M1929.846 960h-1890.462c-23.631 0-39.385-15.754-39.385-39.385v-66.954c0-23.631 15.754-39.385 39.385-39.385h31.508v-712.862c0-31.508 27.569-63.015 63.015-63.015h1689.6c31.508 0 63.015 27.569 63.015 63.015v712.862h39.385c23.631 0 39.385 15.754 39.385 39.385v66.954c3.938 23.631-11.815 39.385-35.446 39.385zM484.431 542.523c0-43.323-35.446-82.708-82.708-82.708h-122.092c-43.323 0-82.708 35.446-82.708 82.708v126.031c0 43.323 35.446 82.708 82.708 82.708h122.092c43.323 0 82.708-35.446 82.708-82.708 0 0 0-126.031 0-126.031zM834.954 144.738c0-23.631-15.754-39.385-39.385-39.385h-189.046c-19.692 0-39.385 19.692-39.385 39.385v586.831c0 23.631 15.754 39.385 39.385 39.385h189.046c19.692 0 39.385-19.692 39.385-39.385v-586.831zM1409.969 459.815h-287.508c-43.323 0-82.708 35.446-82.708 82.708v126.031c0 43.323 35.446 82.708 82.708 82.708h287.508v-291.446zM1803.815 542.523c0-43.323-35.446-82.708-82.708-82.708h-287.508v291.446h287.508c43.323 0 82.708-35.446 82.708-82.708v-126.031zM1512.369-12.8c0 27.569 23.631 55.138 55.138 55.138h82.708c27.569 0 55.138-23.631 55.138-55.138v-51.2h-185.108l-7.877 51.2zM279.631-12.8c0 27.569 23.631 55.138 55.138 55.138h82.708c27.569 0 55.138-23.631 55.138-55.138v-51.2h-192.985v51.2z" />
<glyph unicode="&#xe939;" glyph-name="starCircle" d="M511.488 960c-282.624 0-511.488-229.376-511.488-512s228.864-512 511.488-512c283.136 0 512.512 229.376 512.512 512s-229.376 512-512.512 512zM728.576 116.224l-216.576 130.56-216.576-130.56 57.344 246.272-190.976 165.376 251.904 21.504 98.304 232.448 98.304-231.936 251.904-21.504-190.976-165.376 57.344-246.784z" />
</font>
</defs>
</svg>
