<?xml version="1.0" encoding="UTF-8" standalone="no"?>
<svg width="542px" height="165px" viewBox="0 0 542 165" version="1.1" xmlns="http://www.w3.org/2000/svg" xmlns:xlink="http://www.w3.org/1999/xlink">
    <!-- Generator: Sketch 43.2 (39069) - http://www.bohemiancoding.com/sketch -->
    <title>Hero logo</title>
    <desc>Created with Sketch.</desc>
    <defs></defs>
    <g id="Page-1" stroke="none" stroke-width="1" fill="none" fill-rule="evenodd">
        <g id="Homepage" transform="translate(-241.000000, -207.000000)" fill="#FFFFFF">
            <g id="HERO" transform="translate(0.000000, 70.000000)">
                <g id="Hero-logo" transform="translate(241.000000, 137.000000)">
                    <path d="M15.7434928,164.291735 L0.232760736,98.1278571 L16.0338896,98.1278571 L20.979501,125.319184 C22.4314847,133.26949 23.7881472,141.811327 24.8577382,148.586429 L25.0505971,148.586429 C26.1157546,141.320816 27.6674928,133.371633 29.3134438,125.123878 L34.8409571,98.1278571 L50.5445481,98.1278571 L55.7816646,126.006122 C57.2336483,133.761122 58.2999141,140.830306 59.2697505,148.193571 L59.4648262,148.193571 C60.4335542,140.830306 61.8877546,133.076429 63.2444172,125.123878 L68.5757464,98.1278571 L83.6021145,98.1278571 L66.7347198,164.291735 L50.7385153,164.291735 L45.2132188,135.825306 C43.9518773,129.150102 42.8867198,122.964286 42.1108507,115.405714 L41.9168834,115.405714 C40.7552965,122.86551 39.6879223,129.150102 38.1384008,135.825306 L31.9336646,164.291735 L15.7434928,164.291735" id="Fill-3"></path>
                    <polyline id="Fill-4" points="130.124335 136.315816 106.085693 136.315816 106.085693 152.022245 132.937415 152.022245 132.937415 164.291735 91.3508303 164.291735 91.3508303 98.1256122 131.578536 98.1256122 131.578536 110.398469 106.085693 110.398469 106.085693 124.141735 130.124335 124.141735 130.124335 136.315816"></polyline>
                    <polyline id="Fill-5" points="181.888106 136.315816 157.848356 136.315816 157.848356 152.022245 184.700078 152.022245 184.700078 164.291735 143.114601 164.291735 143.114601 98.1256122 183.342307 98.1256122 183.342307 110.398469 157.848356 110.398469 157.848356 124.141735 181.888106 124.141735 181.888106 136.315816"></polyline>
                    <path d="M194.777509,98.1256122 L209.417051,98.1256122 L209.417051,127.38 L209.612127,127.38 C211.065219,124.828673 212.615849,122.472653 214.167587,120.117755 L228.903558,98.1256122 L247.125399,98.1256122 L225.509685,126.301327 L248.192773,164.291735 L231.037198,164.291735 L214.941239,135.725408 L209.417051,142.696939 L209.417051,164.291735 L194.777509,164.291735 L194.777509,98.1256122" id="Fill-6"></path>
                    <polyline id="Fill-7" points="293.167689 136.315816 269.130155 136.315816 269.130155 152.022245 295.980769 152.022245 295.980769 164.291735 254.394184 164.291735 254.394184 98.1256122 294.625215 98.1256122 294.625215 110.398469 269.130155 110.398469 269.130155 124.141735 293.167689 124.141735 293.167689 136.315816"></polyline>
                    <path d="M306.060417,164.291735 L306.060417,98.1278571 L323.31353,98.1278571 L336.885697,122.375 C340.763935,129.344286 344.543526,137.592041 347.551681,145.049592 L347.743431,145.049592 C346.870025,136.318061 346.578519,127.383367 346.578519,117.367755 L346.578519,98.1278571 L360.149579,98.1278571 L360.149579,164.291735 L344.642172,164.291735 L330.680961,138.76949 C326.803832,131.603776 322.443448,123.159592 319.342188,115.405714 L318.953145,115.405714 C319.439726,124.24051 319.62926,133.566939 319.62926,144.36602 L319.62926,164.291735 L306.060417,164.291735" id="Fill-8"></path>
                    <path d="M387.677415,153.003265 C388.93654,153.298469 391.069072,153.298469 392.813669,153.298469 C406.291624,153.397245 415.10993,145.934082 415.10993,130.131122 C415.10993,115.896224 407.161706,109.121122 394.367624,109.121122 C391.166609,109.121122 388.93654,109.417449 387.677415,109.709286 L387.677415,153.003265 Z M372.942552,99.1111224 C378.368094,98.1278571 385.449562,97.6362245 392.813669,97.6362245 C405.322896,97.6362245 413.462871,99.6981633 419.668716,104.50898 C426.455354,109.611633 430.719309,117.857143 430.719309,129.640612 C430.719309,142.304082 426.161632,151.040102 419.959112,156.440204 C413.076045,162.233163 402.509816,164.980918 389.712409,164.980918 C382.057906,164.980918 376.528176,164.488163 372.942552,163.996531 L372.942552,99.1111224 L372.942552,99.1111224 Z" id="Fill-9"></path>
                    <polyline id="Fill-10" points="479.279849 136.315816 455.241207 136.315816 455.241207 152.022245 482.094037 152.022245 482.094037 164.291735 440.505235 164.291735 440.505235 98.1256122 480.735157 98.1256122 480.735157 110.398469 455.241207 110.398469 455.241207 124.141735 479.279849 124.141735 479.279849 136.315816"></polyline>
                    <path d="M506.813227,127.478776 L512.625595,127.478776 C519.994135,127.478776 524.356736,123.75 524.356736,117.958163 C524.356736,111.968776 520.284532,108.827041 513.499002,108.827041 C509.91227,108.827041 507.875059,109.023469 506.813227,109.318673 L506.813227,127.478776 Z M492.173685,99.1077551 C496.922004,98.2255102 503.901501,97.6362245 511.850834,97.6362245 C521.544765,97.6362245 528.330294,99.1077551 532.983292,102.936429 C536.957959,106.077041 539.090491,110.692551 539.090491,116.777347 C539.090491,125.122755 533.178368,130.915714 527.556642,132.976531 L527.556642,133.270612 C532.107669,135.136122 534.632569,139.456429 536.280736,145.542347 C538.31573,153.102041 540.254294,161.742653 541.513419,164.29398 L526.390622,164.29398 C525.423002,162.428469 523.774834,157.030612 521.931591,148.879388 C520.090564,140.536224 517.276376,138.37551 511.173611,138.276735 L506.813227,138.276735 L506.813227,164.29398 L492.173685,164.29398 L492.173685,99.1077551 L492.173685,99.1077551 Z" id="Fill-11"></path>
                    <path d="M3.76629039,62.2555102 C8.38492843,64.7136735 15.7712025,67.1673469 23.2749652,67.1673469 C31.3550879,67.1673469 35.6256933,63.7764286 35.6256933,58.5177551 C35.6256933,53.7237755 31.9336646,50.8020408 22.5822249,47.530102 C9.65402863,42.8539796 1.112818,35.607449 1.112818,24.0361224 C1.112818,10.592551 12.3086094,0.423163265 30.5470757,0.423163265 C39.4329939,0.423163265 45.7829284,2.17642857 50.3993497,4.3977551 L46.4734519,18.6573469 C43.4719468,17.1386735 37.8180777,14.9162245 30.3165317,14.9162245 C22.6986053,14.9162245 19.0065767,18.5417347 19.0065767,22.5152041 C19.0065767,27.5426531 23.2749652,29.7639796 33.4322004,33.7385714 C47.1673006,38.8793878 53.5150184,46.1270408 53.5150184,57.3470408 C53.5150184,70.5560204 43.5883272,81.7771429 22.236409,81.7771429 C13.3493824,81.7771429 4.57541104,79.3212245 0.190642127,76.8697959 L3.76629039,62.2555102" id="Fill-14"></path>
                    <polyline id="Fill-15" points="83.1820368 1.7094898 83.1820368 32.0997959 112.15299 32.0997959 112.15299 1.7094898 129.694282 1.7094898 129.694282 80.4919388 112.15299 80.4919388 112.15299 47.6457143 83.1820368 47.6457143 83.1820368 80.4919388 65.6340941 80.4919388 65.6340941 1.7094898 83.1820368 1.7094898"></polyline>
                    <polygon id="Fill-16" points="145.161787 80.4919388 162.706405 80.4919388 162.706405 1.7094898 145.161787 1.7094898"></polygon>
                    <polygon id="Fill-17" points="176.995697 80.4043878 194.534773 80.4043878 194.534773 1.64326531 176.995697 1.64326531"></polygon>
                    <polygon id="Fill-18" points="208.824065 80.4043878 226.362033 80.4043878 226.362033 1.64326531 208.824065 1.64326531"></polygon>
                    <path d="M241.593452,80.4055102 L241.593452,1.64326531 L262.135141,1.64326531 L278.287628,30.5092857 C282.904049,38.8053061 287.40409,48.62 290.983063,57.5008163 L291.213607,57.5008163 C290.175051,47.1013265 289.829235,36.4683673 289.829235,24.5490816 L289.829235,1.64326531 L305.986155,1.64326531 L305.986155,80.4055102 L287.521579,80.4055102 L270.904679,50.0208163 C266.289366,41.4913265 261.095476,31.4431633 257.401231,22.2110204 L256.941252,22.2110204 C257.51872,32.7272449 257.751481,43.8293878 257.751481,56.682551 L257.751481,80.4055102 L241.593452,80.4055102" id="Fill-19"></path>
                    <polyline id="Fill-20" points="367.487084 47.0990816 338.867489 47.0990816 338.867489 65.7979592 370.833297 65.7979592 370.833297 80.4055102 321.329521 80.4055102 321.329521 1.64326531 369.21838 1.64326531 369.21838 16.2519388 338.867489 16.2519388 338.867489 32.6093878 367.487084 32.6093878 367.487084 47.0990816"></polyline>
                    <path d="M414.624458,41.1557143 C414.624458,56.1056122 421.507526,66.5544898 432.821914,66.5544898 C444.252683,66.5544898 450.803235,55.539898 450.803235,40.8189796 C450.803235,27.1138776 444.475468,15.4235714 432.821914,15.4235714 C421.283632,15.4235714 414.624458,26.4347959 414.624458,41.1557143 Z M468.662634,40.2577551 C468.662634,65.2019388 453.911145,80.1495918 431.935207,80.1495918 C409.851755,80.1495918 396.760626,63.1804082 396.760626,41.4980612 C396.760626,18.7954082 411.179599,1.82622449 433.154429,1.82622449 C456.123481,1.82622449 468.662634,19.2421429 468.662634,40.2577551 L468.662634,40.2577551 Z" id="Fill-21"></path>
                    <path d="M479.809656,78.9160204 L479.809656,3.17540816 L499.555526,3.17540816 L515.089534,30.932449 C519.526397,38.9096939 523.852421,48.3494898 527.296172,56.8902041 L527.512307,56.8902041 C526.520303,46.8903061 526.183354,36.6603061 526.183354,25.1989796 L526.183354,3.17540816 L541.716254,3.17540816 L541.716254,78.9160204 L523.968802,78.9160204 L507.987006,49.6986735 C503.550143,41.6046939 498.552438,31.8281633 495.001174,22.9529592 L494.560037,22.9529592 C495.110904,33.065102 495.335906,43.7440816 495.335906,56.1056122 L495.335906,78.9160204 L479.809656,78.9160204" id="Fill-22"></path>
                </g>
            </g>
        </g>
    </g>
</svg>