<?xml version="1.0" encoding="UTF-8" standalone="no"?>
<svg width="20px" height="17px" viewBox="0 0 20 17" version="1.1" xmlns="http://www.w3.org/2000/svg" xmlns:xlink="http://www.w3.org/1999/xlink">
    <!-- Generator: Sketch 43.2 (39069) - http://www.bohemiancoding.com/sketch -->
    <title>Twitter</title>
    <desc>Created with Sketch.</desc>
    <defs></defs>
    <g id="Page-1" stroke="none" stroke-width="1" fill="none" fill-rule="evenodd">
        <g id="Homepage" transform="translate(-945.000000, -27.000000)" fill-rule="nonzero" fill="#1A1919">
            <g id="NAV">
                <g id="Twitter" transform="translate(945.000000, 27.000000)">
                    <path d="M6.20923077,16.2469354 C13.6123077,16.2469354 17.6615385,10.0167848 17.6615385,4.61773753 C17.6615385,4.44276841 17.6615385,4.26779928 17.6492308,4.08658126 C18.4369231,3.50543381 19.1138462,2.79305952 19.6553846,1.96820508 C18.9230769,2.29939663 18.1415385,2.51810804 17.3415385,2.6118415 C18.1846154,2.09943192 18.8123077,1.29957307 19.1138462,0.349740676 C18.3261538,0.824656871 17.4584615,1.16209733 16.56,1.34331535 C15.0338462,-0.300144643 12.4861538,-0.381380308 10.8676923,1.16834622 C9.82153846,2.16816979 9.37846154,3.65540735 9.70461538,5.07390703 C6.46769231,4.91143571 3.45230769,3.35546028 1.40923077,0.805910179 C0.338461538,2.67433047 0.886153846,5.06140924 2.65230769,6.26119752 C2.01230769,6.24245083 1.38461538,6.06748171 0.824615385,5.74878794 L0.824615385,5.79877912 C0.824615385,7.74218618 2.17846154,9.41689066 4.05538462,9.80432229 C3.46461538,9.96679362 2.84307692,9.99178921 2.24,9.87306016 C2.76923077,11.5352668 4.27692308,12.678815 6,12.7100595 C4.57230769,13.8473588 2.81230769,14.4659997 1.00307692,14.4659997 C0.683076923,14.4659997 0.363076923,14.447253 0.0430769231,14.4097596 C1.87692308,15.6095479 4.01846154,16.2469354 6.20923077,16.2469354" id="XMLID_22_"></path>
                </g>
            </g>
        </g>
    </g>
</svg>